<?xml version="1.0" standalone="no"?>
<!DOCTYPE svg PUBLIC "-//W3C//DTD SVG 20010904//EN"
 "http://www.w3.org/TR/2001/REC-SVG-20010904/DTD/svg10.dtd">
<svg version="1.0" xmlns="http://www.w3.org/2000/svg"
 width="1300.000000pt" height="969.000000pt" viewBox="0 0 1300.000000 969.000000"
 preserveAspectRatio="xMidYMid meet">
<metadata>
Created by potrace 1.16, written by Peter Selinger 2001-2019
</metadata>
<g transform="translate(0.000000,969.000000) scale(0.100000,-0.100000)"
fill="#000000" stroke="none">
<path d="M3569 7372 c-35 -26 -95 -70 -134 -96 -100 -70 -149 -120 -207 -210
-27 -43 -85 -113 -128 -156 -55 -54 -89 -98 -113 -147 -44 -86 -124 -175 -191
-214 -28 -15 -82 -62 -119 -104 -39 -42 -76 -75 -87 -75 -10 0 -65 23 -121 50
-56 28 -115 50 -130 50 -35 0 -90 -46 -220 -183 -112 -119 -182 -171 -298
-224 -65 -30 -94 -54 -200 -157 -68 -66 -157 -161 -198 -211 -42 -49 -88 -100
-104 -113 -42 -34 -107 -59 -172 -67 -87 -10 -105 -2 -292 124 -89 61 -111 62
-198 10 -67 -41 -77 -44 -143 -44 l-70 0 -88 -92 c-86 -90 -214 -193 -309
-248 -54 -31 -56 -51 -6 -48 l34 1 -37 -30 c-46 -36 -51 -63 -10 -54 26 6 26
6 8 -9 -11 -8 -23 -15 -28 -15 -4 0 -8 -7 -8 -15 0 -8 3 -15 6 -15 3 0 53 33
111 72 112 77 178 142 188 186 9 42 140 247 160 250 9 2 38 1 63 -3 37 -5 43
-9 29 -16 -21 -12 -22 -29 -3 -29 11 0 9 -11 -10 -45 -18 -35 -20 -45 -9 -45
8 0 15 -5 15 -11 0 -6 9 -9 19 -6 12 3 3 -11 -26 -39 -25 -24 -48 -44 -52 -44
-4 0 -13 -15 -21 -34 -7 -19 -26 -44 -42 -56 -28 -20 -36 -44 -19 -54 4 -3 49
27 99 66 133 104 232 248 216 314 -5 19 19 84 31 84 15 0 71 -31 137 -77 42
-30 111 -69 153 -88 41 -19 75 -37 75 -40 0 -3 -12 -10 -26 -16 -53 -19 -14
-20 52 0 37 11 63 16 58 12 -5 -5 -40 -18 -79 -31 -38 -12 -76 -24 -84 -26 -8
-2 -11 -7 -9 -10 3 -3 34 2 68 11 34 9 72 15 84 13 11 -2 -14 -12 -56 -22 -43
-10 -78 -22 -78 -26 0 -4 17 -4 38 1 20 5 44 9 52 9 13 0 13 -1 0 -10 -13 -8
-13 -10 2 -10 9 0 29 10 45 23 15 12 42 29 58 37 l30 13 -30 7 c-29 6 -27 7
40 39 46 21 65 35 57 40 -9 5 0 13 27 26 22 9 50 29 63 43 21 22 16 21 -43
-12 -36 -20 -69 -36 -73 -36 -11 0 84 107 259 292 l160 169 107 53 c60 29 108
51 108 50 0 -10 -98 -68 -135 -81 -25 -8 -47 -19 -50 -23 -8 -13 65 0 98 17
16 8 32 11 35 7 4 -4 1 -9 -5 -11 -7 -3 -13 -9 -13 -15 0 -5 17 1 38 13 29 18
34 19 22 5 -21 -27 -119 -87 -167 -103 -24 -8 -45 -19 -49 -24 -7 -12 -2 -11
41 7 20 8 39 13 42 10 3 -3 -11 -11 -30 -19 -45 -19 -59 -40 -20 -31 l28 6
-31 -20 c-32 -20 -67 -62 -59 -70 2 -2 29 8 61 22 86 40 88 30 3 -17 -42 -23
-92 -57 -113 -74 -20 -18 -42 -33 -47 -33 -6 0 -9 -6 -6 -14 3 -8 -1 -20 -9
-26 -8 -7 -14 -19 -14 -27 0 -17 -12 -33 -68 -90 -31 -32 -40 -47 -34 -59 8
-14 10 -14 21 0 8 9 18 16 24 16 6 0 -1 -12 -15 -27 -41 -44 -80 -111 -73
-123 16 -27 45 6 164 190 l126 194 99 56 c110 61 179 124 311 282 122 145 168
233 199 381 4 15 13 27 21 27 8 0 62 -22 120 -50 58 -27 114 -50 124 -50 9 0
51 34 92 76 41 42 106 98 146 125 82 56 128 108 173 199 21 42 61 94 115 150
45 47 107 123 137 170 63 99 80 115 103 103 15 -9 15 -11 1 -22 -20 -17 -20
-31 -1 -31 32 0 7 -65 -31 -81 -18 -8 -74 -87 -74 -104 0 -10 -23 -46 -50 -81
-54 -69 -55 -76 -8 -42 30 21 30 21 19 0 -18 -33 -13 -35 22 -10 31 22 31 21
-9 -27 -23 -28 -54 -61 -68 -74 -17 -16 -24 -31 -20 -43 4 -13 0 -18 -13 -18
-18 0 -63 -49 -63 -67 0 -12 -73 -75 -121 -105 -52 -31 -132 -98 -126 -105 3
-2 29 11 58 30 30 19 83 49 119 67 36 17 90 52 122 76 62 48 73 52 82 28 7
-18 -43 -88 -75 -105 -26 -13 -24 -29 4 -30 12 0 1 -7 -26 -14 -26 -7 -60 -21
-75 -31 l-27 -19 25 -3 25 -4 -30 -14 c-30 -14 -29 -14 18 -9 60 6 53 -10 -8
-19 -50 -8 -65 -21 -34 -29 14 -4 18 -10 13 -19 -5 -7 -7 -22 -6 -34 8 -56
-108 -132 -278 -184 -58 -17 -118 -38 -135 -46 -16 -8 -45 -17 -63 -20 -34 -7
-48 -19 -33 -28 13 -8 125 22 129 34 2 6 15 10 28 10 13 0 41 9 61 20 21 11
45 20 53 20 8 0 38 8 65 19 28 10 67 21 88 24 34 5 37 4 37 -18 0 -13 5 -27
11 -30 6 -4 8 -13 5 -21 -3 -8 1 -14 10 -14 53 0 94 70 94 159 0 56 2 62 31
83 16 13 39 37 50 54 11 18 42 50 70 71 34 25 60 56 79 93 15 30 43 72 62 93
19 21 43 62 53 92 17 48 18 63 7 127 -19 117 -25 194 -16 211 5 8 39 47 76 85
74 76 102 125 143 250 30 92 28 91 105 52 59 -30 79 -59 143 -200 19 -41 59
-112 90 -158 32 -45 57 -85 57 -87 0 -14 -40 0 -126 46 -53 27 -98 48 -101 45
-7 -7 127 -82 177 -99 25 -8 68 -20 97 -27 74 -17 132 -59 196 -143 31 -39 76
-91 100 -114 25 -24 76 -84 115 -135 39 -51 81 -103 94 -115 28 -27 184 -127
297 -191 59 -33 109 -73 170 -134 47 -48 115 -107 151 -130 42 -28 78 -62 103
-98 45 -65 80 -104 168 -186 52 -47 103 -80 246 -153 241 -123 289 -159 453
-337 81 -88 195 -148 412 -216 l193 -60 95 8 c52 4 136 7 185 5 86 -2 257 21
400 53 60 14 92 11 62 -5 -8 -5 -70 -23 -138 -40 -93 -23 -156 -32 -254 -37
-96 -4 -122 -7 -100 -14 17 -4 40 -6 53 -3 12 3 22 1 22 -4 0 -4 -44 -15 -97
-22 -54 -7 -90 -15 -79 -17 36 -7 238 30 458 84 122 30 223 52 225 50 6 -6
-36 -17 -217 -61 -222 -54 -438 -116 -458 -132 -16 -13 -15 -14 8 -10 14 3 79
19 145 36 66 16 121 28 124 26 2 -3 -2 -7 -10 -9 -158 -55 -204 -71 -256 -88
-35 -12 -63 -25 -63 -29 0 -14 64 -14 100 0 39 15 191 44 198 37 2 -3 -16 -10
-39 -16 -216 -56 -346 -94 -353 -101 -6 -5 -22 -9 -37 -9 -15 0 -31 -5 -35
-12 -9 -15 107 -5 331 28 253 38 449 83 363 84 -41 0 -177 -20 -238 -35 -144
-36 -190 -46 -247 -54 -34 -4 -60 -4 -57 0 7 12 227 76 548 159 81 21 151 41
154 44 14 15 -11 12 -116 -14 -63 -15 -110 -24 -105 -20 4 4 60 24 123 45 63
21 117 39 119 41 15 14 -21 9 -138 -17 -74 -16 -136 -28 -138 -25 -5 5 166 60
317 101 135 37 160 45 160 55 0 5 -10 10 -22 12 -17 2 -6 11 45 32 65 28 85
46 51 46 -9 0 -50 -16 -91 -36 -41 -19 -77 -33 -80 -31 -4 5 76 45 150 76 15
6 26 15 23 20 -3 5 38 23 90 40 134 45 256 51 441 23 76 -11 187 -25 248 -31
114 -11 96 -6 558 -167 55 -19 163 -46 240 -59 78 -13 165 -29 192 -34 28 -6
127 -16 221 -22 151 -11 186 -11 292 4 66 9 129 20 139 23 12 5 15 4 8 -3 -5
-6 -55 -23 -110 -38 -80 -23 -120 -28 -203 -28 -56 0 -105 -3 -108 -8 -3 -5
16 -10 43 -10 44 -2 42 -3 -27 -13 l-75 -11 110 -6 c61 -3 105 -6 98 -7 -7 -1
-59 -7 -115 -13 -57 -6 -107 -15 -113 -20 -12 -11 -21 -12 184 6 96 9 176 13
178 11 5 -5 -28 -10 -152 -25 -49 -6 -58 -9 -30 -10 22 0 96 6 165 14 69 8
126 15 128 15 1 0 2 4 2 9 0 5 -12 11 -27 13 -16 2 14 7 65 12 102 8 124 25
35 27 l-58 1 73 18 c40 9 76 21 80 25 10 10 -61 -3 -168 -33 -97 -26 -244 -42
-225 -24 6 5 89 23 185 40 97 17 200 39 230 49 l55 18 -50 5 c-41 4 -45 6 -25
12 101 28 285 4 550 -70 l135 -38 -1 -30 c-1 -17 -23 -65 -53 -112 -28 -45
-51 -86 -51 -91 0 -4 -10 -20 -21 -35 -18 -23 -20 -32 -11 -51 7 -15 8 -26 2
-30 -6 -4 -10 -19 -10 -34 0 -15 -9 -36 -19 -45 -16 -14 -18 -22 -9 -36 7 -10
8 -25 3 -36 -4 -11 -7 -25 -6 -33 1 -7 -7 -23 -19 -36 l-21 -22 23 -6 c17 -5
20 -9 11 -18 -9 -9 -19 -6 -42 13 -16 14 -26 29 -21 34 12 13 16 57 6 72 -4 7
-9 31 -11 53 -2 26 -16 60 -40 97 l-38 57 -21 -30 c-12 -16 -38 -47 -58 -70
-34 -38 -60 -102 -59 -147 0 -10 -4 -20 -10 -23 -15 -10 -10 -28 6 -21 8 3 15
1 15 -4 0 -6 -4 -10 -10 -10 -5 0 -10 -5 -10 -11 0 -6 9 -8 23 -4 18 5 16 2
-10 -20 -18 -15 -33 -33 -33 -40 0 -7 -12 -23 -26 -34 -14 -11 -23 -25 -19
-31 4 -6 -1 -20 -10 -30 -10 -11 -15 -26 -12 -35 5 -11 0 -15 -17 -15 -44 0
-191 31 -311 65 -66 19 -154 43 -195 54 -41 10 -157 42 -257 69 -159 45 -217
55 -470 86 -314 39 -605 70 -808 86 -71 6 -193 20 -270 32 -117 17 -187 21
-420 21 -154 0 -356 -4 -450 -10 -191 -12 -613 -2 -915 22 -102 8 -241 17
-310 20 -168 8 -242 21 -303 52 -28 14 -105 39 -171 55 -67 16 -172 45 -235
64 -62 19 -146 39 -185 45 -112 15 -332 74 -442 118 -183 73 -348 111 -529
121 -88 6 -182 15 -210 20 -225 44 -397 63 -590 64 l-200 2 -65 30 c-36 17
-82 45 -102 62 -19 18 -42 32 -49 32 -8 0 2 -14 21 -30 19 -16 30 -30 23 -30
-6 0 -14 4 -17 9 -3 5 -16 11 -28 14 -23 6 -23 6 2 -15 l25 -21 -32 6 c-44 9
-42 -8 5 -33 l37 -21 -35 7 c-82 15 -87 15 -65 4 11 -5 34 -15 50 -21 44 -18
8 -23 -57 -10 -50 11 -84 6 -39 -6 16 -4 19 -8 10 -14 -7 -4 -23 -3 -36 2 -36
14 -45 11 -38 -11 6 -17 2 -20 -28 -20 -60 0 -99 -12 -104 -32 -3 -10 -14 -18
-24 -18 -12 0 -19 -7 -19 -20 0 -11 -5 -20 -11 -20 -6 0 -8 8 -5 18 6 17 2 18
-42 12 -26 -3 -59 -14 -72 -23 -13 -9 -35 -17 -48 -17 -13 0 -21 -4 -18 -9 3
-5 15 -7 26 -4 11 3 20 1 20 -4 0 -5 -66 -22 -147 -37 -82 -16 -195 -40 -253
-53 -158 -37 -217 -40 -266 -15 -48 24 -83 62 -141 152 -76 118 -70 145 27
125 88 -19 98 -6 39 48 -47 42 -109 135 -109 162 0 11 6 12 31 3 36 -12 52 -3
18 11 l-24 10 23 0 c12 1 30 10 39 21 10 11 24 20 32 20 11 0 10 4 -5 15 -18
13 -16 14 23 15 34 0 41 3 37 15 -5 12 4 15 44 15 27 0 63 7 78 15 16 8 37 15
47 15 31 0 18 19 -18 26 -19 3 -35 9 -35 13 0 4 53 20 118 35 170 42 183 46
177 57 -4 5 7 9 24 9 39 0 66 10 51 20 -6 4 12 10 41 14 30 4 58 11 64 16 5 4
19 10 30 12 11 2 20 10 20 18 0 11 17 17 64 22 35 4 66 9 68 12 9 9 -8 26 -28
26 -10 0 -19 5 -19 10 0 6 9 10 20 10 26 0 80 27 80 40 0 6 11 10 25 10 14 0
29 8 34 19 6 10 29 26 53 35 23 10 54 28 70 41 42 35 58 37 155 20 93 -16 230
-20 183 -5 -14 4 -50 9 -80 9 -30 1 -84 8 -119 15 -54 12 -71 12 -110 0 -63
-19 -145 -17 -286 6 -140 23 -135 22 -135 11 0 -4 42 -14 92 -21 118 -16 153
-29 78 -29 -30 0 -80 4 -110 9 -30 4 -59 4 -64 0 -4 -5 11 -11 35 -14 24 -4
69 -10 99 -15 l55 -9 -75 -1 c-41 0 -103 6 -138 14 -91 22 -99 6 -11 -20 41
-12 90 -29 109 -38 l35 -15 -30 -1 c-16 0 -100 8 -185 18 -85 10 -159 15 -163
11 -5 -4 9 -10 30 -14 64 -11 143 -38 143 -49 0 -16 -136 -2 -165 17 -14 9
-25 12 -25 6 0 -15 47 -35 128 -56 39 -10 72 -21 72 -25 0 -15 -239 5 -307 26
-13 4 -23 3 -23 -3 0 -5 20 -15 45 -22 58 -16 57 -30 -2 -31 l-48 -1 50 -10
c87 -16 95 -18 95 -26 0 -4 -35 -4 -77 0 -43 3 -100 6 -128 6 l-50 0 65 -21
c62 -21 63 -22 30 -25 -64 -6 -57 -22 11 -23 l64 -2 -50 -7 c-27 -5 -71 -9
-96 -9 -42 -1 -59 -11 -59 -37 0 -2 26 -4 58 -4 76 0 51 -16 -42 -26 -76 -8
-77 -6 29 -33 34 -9 25 -10 -52 -7 -51 2 -93 -1 -93 -5 0 -5 21 -9 48 -9 26 0
54 -5 62 -11 11 -7 -8 -9 -65 -4 l-80 6 25 -20 25 -21 -66 0 c-47 0 -70 -4
-79 -15 -7 -8 -18 -15 -25 -15 -8 0 -16 -13 -20 -29 -6 -26 -12 -31 -51 -37
-28 -4 -44 -11 -44 -20 0 -8 -9 -14 -20 -14 -12 0 -17 -5 -14 -13 7 -20 -50
-65 -88 -69 l-33 -4 35 -17 35 -17 -74 6 c-65 6 -73 4 -68 -9 5 -14 -2 -15
-46 -11 l-52 5 63 -25 c97 -37 95 -40 -15 -36 -38 1 -63 -2 -63 -8 0 -6 10
-13 23 -15 12 -2 3 -5 -20 -6 -43 -1 -61 -20 -23 -22 18 -1 25 -2 48 -8 14 -4
-33 -20 -60 -20 -38 -1 -36 -21 2 -21 34 0 35 -2 18 -33 -25 -48 -91 -107
-118 -107 -29 0 -59 -25 -45 -38 4 -4 10 -2 12 5 2 7 19 15 37 19 36 6 136 87
136 109 0 7 6 18 14 25 8 6 12 18 9 26 -4 10 3 14 27 14 24 0 31 4 27 14 -7
18 24 46 50 46 12 0 29 3 38 7 16 5 15 8 -5 23 l-23 17 27 7 c14 3 26 11 26
17 0 6 13 7 35 3 45 -8 72 1 56 20 -13 16 -4 27 16 19 14 -6 73 48 73 68 0 5
9 9 20 9 19 0 19 -3 -11 -47 -18 -26 -58 -71 -88 -100 -43 -41 -53 -55 -44
-64 10 -10 25 -9 70 1 32 7 64 18 72 24 8 6 12 7 10 1 -20 -45 -35 -64 -67
-85 -20 -13 -50 -35 -65 -49 l-28 -25 22 -17 22 -16 -29 -19 c-65 -42 -144
-106 -144 -117 0 -25 18 -41 32 -29 8 6 19 7 27 3 23 -14 93 1 144 31 51 30
67 34 67 18 0 -25 -35 -60 -73 -75 -114 -42 -968 -206 -1277 -245 -138 -17
-224 -32 -240 -41 -20 -11 -13 -11 125 6 196 24 884 144 1045 181 130 30 303
64 308 60 9 -10 -107 -67 -173 -87 -38 -11 -81 -23 -95 -27 -19 -6 -26 -15
-28 -40 -3 -29 -1 -32 25 -33 15 0 37 -4 48 -8 11 -5 25 -5 30 -1 16 12 48 14
73 4 l23 -10 -22 -28 -21 -27 21 -23 22 -23 -88 -40 c-48 -22 -148 -60 -222
-84 -138 -46 -151 -55 -151 -110 0 -23 22 -25 40 -4 16 19 30 19 30 1 0 -21
19 -30 35 -16 17 14 55 -3 55 -25 0 -25 28 -17 43 12 l14 27 8 -24 8 -24 23
29 24 30 0 -42 c0 -49 5 -52 29 -21 16 19 18 20 24 3 6 -13 -13 -38 -75 -100
-68 -67 -102 -92 -188 -136 -98 -50 -106 -56 -114 -91 -12 -47 -5 -54 28 -32
15 9 28 15 29 13 2 -2 11 -17 21 -32 17 -27 18 -28 32 -10 12 16 15 16 23 3 8
-12 13 -12 23 -2 18 18 28 15 28 -10 0 -13 4 -29 9 -37 13 -20 50 4 63 40 9
27 11 28 23 13 11 -16 15 -16 48 5 30 18 40 20 58 11 21 -12 20 -13 -27 -62
-76 -77 -201 -163 -331 -226 -177 -86 -208 -113 -178 -159 l16 -24 19 21 19
22 12 -26 c15 -32 22 -32 42 -3 l16 22 24 -30 c21 -25 27 -28 41 -16 13 11 19
11 31 1 12 -10 20 -7 44 19 28 30 29 30 46 11 22 -25 54 -26 71 -3 7 10 16 15
20 10 18 -17 -75 -91 -199 -158 -42 -23 -93 -54 -112 -69 -23 -18 -53 -31 -85
-35 -42 -6 -51 -11 -56 -31 -3 -13 -13 -26 -22 -28 -30 -9 -556 -11 -609 -3
-34 6 -53 5 -53 -1 0 -17 161 -23 455 -18 266 4 280 3 293 -15 17 -25 37 -24
56 2 13 20 18 21 45 9 17 -7 38 -9 48 -6 9 4 20 1 24 -6 6 -9 12 -8 27 5 10 9
26 17 35 17 9 0 24 14 32 31 9 17 22 29 28 26 48 -18 56 -17 62 3 3 11 11 20
16 20 14 0 11 -8 -16 -48 -31 -45 -31 -56 -3 -74 21 -14 19 -16 -58 -76 -43
-34 -121 -83 -172 -107 -51 -25 -126 -68 -168 -95 -49 -32 -91 -51 -121 -56
-49 -7 -93 -40 -93 -69 0 -24 27 -29 55 -11 23 15 25 15 25 -1 0 -22 38 -59
74 -73 23 -8 30 -6 50 15 l24 25 16 -25 c19 -29 29 -31 51 -8 10 9 31 17 49
17 28 1 32 5 37 36 l6 35 12 -32 c7 -18 19 -33 27 -33 17 0 34 31 35 67 1 25
2 24 11 -11 7 -24 18 -40 29 -43 11 -3 19 -8 19 -11 0 -7 -98 -99 -127 -120
-10 -7 -47 -26 -83 -43 -36 -16 -81 -39 -100 -50 -58 -33 -192 -95 -246 -113
-64 -21 -82 -35 -86 -66 -2 -20 1 -25 17 -23 11 2 30 -2 41 -8 16 -8 27 -8 43
0 24 13 28 8 33 -48 4 -46 22 -49 57 -12 34 37 47 38 70 10 l17 -22 36 37 35
36 15 -22 c8 -13 17 -31 21 -40 14 -39 67 -1 67 48 0 37 13 35 31 -6 10 -22
24 -40 32 -40 15 0 44 56 34 66 -3 3 -8 -4 -12 -15 -8 -26 -31 -27 -44 -3 -7
13 -4 29 10 57 12 25 17 31 15 16 -7 -35 11 -13 27 34 18 53 42 61 34 11 -3
-20 -2 -34 2 -31 5 3 12 -11 15 -30 5 -27 1 -45 -19 -79 -14 -24 -32 -49 -40
-56 -17 -14 -55 -86 -55 -105 0 -7 9 -16 19 -20 11 -3 23 -15 26 -26 7 -23 30
-25 39 -4 6 16 56 21 56 6 0 -5 8 -12 17 -15 21 -8 43 18 43 49 0 12 7 30 14
41 14 18 15 18 26 -13 13 -35 35 -49 44 -27 3 8 12 14 20 14 25 0 46 30 47 68
l2 37 6 -35 c5 -32 9 -35 43 -38 36 -3 37 -3 43 42 4 24 4 58 0 75 -5 24 -3
31 9 31 10 0 16 -9 16 -24 0 -38 10 -56 32 -56 27 0 70 35 84 68 10 25 12 22
19 -42 19 -171 -31 -326 -106 -326 -15 0 -61 -7 -101 -16 -40 -9 -97 -16 -127
-15 -40 0 -57 -4 -66 -16 -10 -14 -30 -17 -99 -17 -47 0 -86 -1 -86 -3 0 -2
11 -8 25 -13 26 -10 35 -30 13 -30 -7 1 -33 5 -58 10 -54 10 -81 -4 -53 -27
13 -11 10 -11 -9 1 -30 18 -65 20 -87 7 -11 -7 -4 -12 27 -21 49 -13 56 -24
12 -18 -17 3 -34 0 -37 -5 -4 -7 29 -8 93 -4 105 6 156 15 324 53 58 13 121
26 141 29 21 3 52 16 71 29 33 22 138 42 138 26 0 -8 -69 -30 -93 -30 -9 0
-20 -6 -24 -14 -4 -8 -24 -19 -43 -24 l-35 -10 45 -1 c59 -2 34 -20 -30 -22
-25 -1 -58 -5 -75 -9 -23 -6 -14 -8 40 -10 49 -1 64 -4 50 -10 -18 -8 -17 -9
7 -9 15 -1 31 5 35 13 4 7 18 19 31 25 13 7 21 18 19 24 -5 15 15 34 48 47 38
15 55 12 55 -7 1 -13 12 -6 38 25 21 23 46 42 57 42 11 0 25 4 30 8 18 13 17
42 -2 49 -10 4 -23 12 -30 19 -9 9 -6 13 16 17 15 3 38 15 52 26 22 19 23 22
7 31 -25 15 -25 107 0 126 26 20 28 17 24 -23 -7 -57 18 -205 38 -228 9 -11
23 -35 30 -53 19 -48 23 -32 5 19 -38 105 -60 289 -35 289 6 0 10 -6 10 -12 3
-131 7 -157 33 -210 26 -53 93 -126 104 -114 3 3 -11 21 -31 41 -56 54 -86
126 -86 208 0 38 5 77 11 89 11 20 11 20 37 -5 15 -13 38 -27 52 -30 14 -3 35
-8 46 -12 19 -6 22 -2 28 39 11 73 36 67 36 -10 0 -27 4 -34 20 -34 22 0 40
28 40 62 0 16 8 7 25 -30 22 -47 27 -52 44 -42 11 5 23 15 26 20 4 6 15 8 25
5 12 -4 20 0 23 12 3 10 5 4 6 -14 2 -49 32 -61 75 -28 18 14 35 25 38 25 4 0
11 -13 17 -30 8 -25 15 -30 43 -30 29 0 39 8 78 60 48 64 46 65 66 -5 5 -16
17 -31 26 -33 17 -3 52 26 75 64 11 17 11 15 7 -12 -6 -30 -5 -31 38 -37 35
-5 47 -2 66 15 27 26 28 43 3 101 -18 42 -24 46 -84 66 -35 12 -91 38 -123 57
-33 20 -90 53 -129 74 -136 73 -242 135 -276 162 l-33 27 22 24 c12 13 22 30
22 38 0 8 5 21 11 29 7 11 9 -3 7 -50 -3 -56 -1 -65 15 -68 10 -2 24 4 31 13
10 14 18 16 42 8 16 -5 29 -16 30 -24 0 -8 2 -22 2 -31 3 -25 25 -22 56 7 27
25 31 23 38 -20 4 -23 46 -34 52 -13 3 7 7 34 11 60 3 27 10 48 15 48 4 0 6
-17 3 -38 -4 -27 -1 -42 11 -51 20 -17 46 -7 53 19 7 24 13 25 52 3 37 -22 45
-15 63 50 11 43 11 49 -7 67 -11 10 -83 51 -160 89 -77 39 -172 88 -210 108
-39 21 -84 44 -100 50 -37 16 -175 140 -175 157 0 7 9 21 19 30 19 17 20 17
23 -10 2 -20 11 -30 32 -37 35 -12 46 2 46 55 0 20 4 40 10 43 6 4 10 -16 10
-53 0 -62 12 -78 46 -65 10 4 17 -1 21 -16 7 -27 27 -27 53 1 l20 22 0 -27 c0
-39 39 -37 62 3 24 41 38 38 38 -10 0 -42 -1 -42 75 -53 19 -4 33 0 41 11 9
13 15 14 26 4 12 -9 19 -6 36 18 34 46 29 71 -22 100 -85 49 -139 86 -222 153
-85 69 -98 87 -66 87 9 1 49 5 87 11 39 5 219 14 400 19 182 5 385 16 453 24
67 8 129 13 137 10 7 -3 73 0 145 6 73 6 135 9 138 6 2 -3 -31 -40 -74 -83
-44 -43 -131 -136 -193 -206 -63 -70 -166 -174 -230 -231 -108 -95 -119 -109
-163 -196 -52 -102 -59 -143 -28 -160 11 -6 68 -13 128 -15 125 -6 370 -48
427 -75 107 -49 187 -80 256 -101 l75 -22 110 36 c144 47 356 104 419 112 92
11 309 57 386 81 89 28 126 60 168 144 28 57 29 79 4 116 -18 27 -14 30 67 38
100 11 124 25 143 82 9 27 50 121 93 209 42 88 83 182 90 209 15 56 8 210 -9
199 -6 -3 -7 -34 -3 -77 5 -52 2 -86 -9 -124 -23 -76 -167 -364 -177 -354 -5
5 -9 38 -9 73 -1 35 -12 112 -26 172 l-26 107 22 73 c11 39 21 81 21 91 0 25
-51 118 -130 237 -34 52 -66 103 -70 115 -14 35 -117 168 -155 197 -19 15 -35
36 -35 47 0 20 95 101 179 154 66 42 77 35 144 -101 33 -65 85 -165 117 -223
31 -58 65 -118 73 -135 9 -16 30 -76 47 -132 32 -105 45 -130 38 -69 -4 38 6
45 72 47 l35 1 -40 9 c-22 6 -48 8 -58 5 -20 -5 -47 29 -47 60 0 12 -22 64
-48 115 -183 356 -237 456 -250 467 -9 6 -25 9 -36 6 -28 -8 -281 -151 -330
-186 -21 -15 -45 -28 -51 -28 -25 0 -124 -113 -171 -197 -57 -99 -140 -215
-208 -290 -54 -60 -74 -65 -145 -33 -24 11 -53 20 -65 20 -29 0 -126 -47 -213
-103 -70 -46 -75 -47 -200 -62 -70 -8 -164 -15 -208 -15 -44 0 -134 -7 -200
-15 -66 -8 -212 -15 -325 -15 -113 0 -248 -5 -300 -10 -154 -16 -295 -23 -323
-16 -14 3 -49 30 -78 58 -42 41 -50 54 -36 56 10 2 29 14 42 28 31 31 45 31
45 -1 0 -32 28 -47 69 -35 19 5 42 5 56 0 17 -6 27 -5 36 6 10 12 14 12 26 -6
17 -24 42 -26 48 -5 16 51 14 49 40 25 20 -19 27 -21 40 -10 34 28 8 120 -33
120 -7 0 -38 24 -70 53 -31 29 -119 88 -195 132 -152 87 -177 113 -177 184 0
39 2 42 23 36 12 -4 32 -16 44 -27 15 -14 29 -19 47 -14 20 5 25 2 28 -16 2
-16 11 -24 29 -26 23 -3 31 5 59 50 27 45 31 49 26 23 -2 -16 -8 -38 -11 -47
-5 -12 -1 -20 11 -25 21 -8 54 29 54 60 0 26 12 14 26 -26 8 -23 16 -31 30
-29 25 4 44 30 44 59 0 25 -63 99 -126 147 -97 74 -201 166 -214 190 -12 24
-12 29 7 48 20 19 23 20 38 4 17 -16 45 -22 45 -8 0 4 5 14 10 22 8 13 11 12
23 -4 10 -14 30 -20 69 -24 l55 -4 26 45 c15 25 27 48 27 51 0 3 -17 8 -37 12
-21 4 -63 19 -93 35 -30 15 -84 42 -120 58 -40 18 -90 53 -130 90 l-65 61 24
20 c29 25 38 25 46 0 l6 -20 29 20 c22 16 38 19 68 14 46 -7 72 12 65 48 -4
19 -25 31 -121 68 -92 35 -129 55 -179 98 -61 51 -75 80 -46 89 7 3 17 -7 23
-21 8 -22 14 -25 40 -20 19 4 38 1 52 -8 13 -8 39 -18 59 -22 28 -5 39 -2 54
14 17 19 17 21 0 40 -10 11 -16 22 -14 24 7 7 441 93 659 131 113 20 214 38
225 40 l20 5 -20 -10 c-11 -5 -137 -39 -280 -76 -241 -61 -313 -83 -276 -84 8
0 86 20 175 45 189 52 497 127 502 122 2 -2 -101 -41 -229 -86 -321 -115 -492
-190 -473 -208 2 -2 41 12 87 30 101 42 292 96 334 96 17 -1 100 17 185 39 85
22 207 48 270 58 133 20 181 38 75 29 -129 -11 -521 -97 -702 -153 -89 -28
-78 -11 15 22 334 120 611 208 684 218 46 6 87 15 93 19 14 13 -6 11 -164 -16
-179 -31 -202 -31 -86 1 50 14 131 38 180 53 50 16 113 32 140 35 81 11 398
-11 555 -39 80 -14 204 -30 275 -35 72 -5 150 -12 175 -15 84 -11 311 -75 438
-124 77 -29 187 -61 277 -80 83 -18 227 -52 320 -76 94 -25 210 -54 258 -65
48 -11 109 -31 135 -44 78 -39 118 -47 312 -57 102 -5 250 -16 330 -25 117
-13 238 -16 630 -14 1013 5 1012 5 1165 -18 77 -12 205 -26 285 -32 311 -23
961 -101 1095 -131 50 -11 133 -34 186 -50 53 -16 152 -42 220 -59 68 -16 150
-38 182 -49 64 -22 292 -71 335 -71 l27 -1 -33 -28 c-28 -24 -31 -30 -18 -40
9 -8 24 -10 38 -5 l23 7 -20 -23 c-41 -46 -52 -47 -440 -53 -391 -7 -690 -30
-1070 -82 -275 -37 -332 -44 -430 -50 -252 -15 -407 -28 -570 -45 -99 -11
-241 -24 -315 -30 -445 -35 -553 -48 -729 -86 -228 -49 -480 -95 -716 -129
-132 -19 -285 -44 -340 -55 -131 -26 -540 -90 -576 -90 -15 0 -31 -4 -34 -10
-4 -6 5 -10 20 -10 35 0 513 76 595 95 36 8 151 26 255 41 195 26 554 91 807
144 155 34 327 55 513 65 66 3 239 19 385 35 302 33 463 47 635 56 66 3 221
18 345 34 275 36 601 70 661 70 63 0 89 -17 111 -75 22 -56 25 -113 7 -147
-15 -30 -172 -182 -269 -260 -41 -33 -119 -82 -175 -109 -55 -27 -118 -62
-140 -78 -22 -16 -83 -51 -135 -78 -52 -28 -121 -65 -153 -82 -72 -41 -155
-70 -232 -83 -32 -5 -90 -22 -127 -39 -37 -16 -91 -34 -120 -39 -29 -6 -118
-31 -198 -56 -80 -26 -192 -59 -250 -75 -58 -16 -116 -35 -130 -43 -14 -7 -41
-17 -60 -21 -38 -7 -175 -49 -230 -70 -19 -8 -75 -21 -125 -31 -88 -16 -183
-49 -173 -60 3 -2 23 2 44 10 22 9 82 25 135 35 53 11 113 27 135 35 21 8 80
26 129 41 50 15 128 39 175 55 47 16 141 44 210 64 69 19 157 46 197 61 39 14
98 30 130 36 32 6 87 23 123 39 36 16 91 33 122 39 107 19 197 54 296 113 34
21 91 51 126 67 35 16 91 47 125 70 34 23 98 58 143 77 48 20 111 58 152 92
111 89 269 241 288 275 24 45 22 112 -7 182 -28 67 -22 79 32 71 22 -3 49 -22
85 -57 l53 -53 4 -83 c2 -62 -1 -92 -13 -117 -9 -19 -16 -38 -16 -43 0 -6 -29
-50 -64 -99 -64 -90 -321 -354 -386 -398 -176 -117 -240 -156 -256 -156 -11 0
-24 -4 -29 -9 -6 -5 -35 -19 -65 -32 -60 -24 -297 -175 -345 -219 -36 -32
-249 -145 -295 -155 -35 -8 -142 -54 -150 -65 -3 -4 -23 -19 -45 -34 -77 -51
-121 -82 -185 -129 -57 -43 -69 -48 -105 -45 -22 3 -49 -1 -60 -8 -11 -6 -44
-15 -74 -18 -30 -4 -66 -16 -83 -29 -21 -15 -44 -22 -82 -22 -58 -1 -51 3
-198 -116 l-81 -66 -37 14 c-42 17 -43 16 -135 -77 -43 -43 -45 -44 -60 -25
-14 19 -14 19 -15 -12 0 -25 -3 -30 -19 -26 -13 3 -20 -2 -24 -17 -3 -12 -10
-19 -15 -16 -15 9 -72 -14 -72 -30 0 -8 -7 -14 -15 -14 -8 0 -19 -9 -26 -21
-7 -15 -17 -19 -32 -15 -12 3 -28 -1 -37 -8 -20 -18 -75 -27 -87 -15 -7 7 -16
1 -27 -16 -13 -20 -22 -24 -41 -19 -20 5 -27 1 -36 -20 -12 -26 -19 -30 -52
-27 -9 1 -20 -5 -23 -13 -4 -10 -18 -16 -36 -16 -18 0 -39 -10 -55 -26 -22
-23 -29 -24 -52 -15 l-26 11 24 -20 24 -21 27 26 c19 18 36 25 59 23 22 -2 36
3 42 15 6 9 17 17 26 17 10 0 29 12 45 27 22 21 30 24 42 14 11 -10 17 -8 29
10 11 15 29 23 58 25 24 3 50 11 59 19 9 8 25 12 38 8 17 -4 27 0 38 16 8 11
21 21 28 21 8 0 16 7 19 14 3 8 22 18 42 22 19 3 39 13 44 21 4 9 14 14 22 11
7 -2 35 18 61 46 26 28 51 54 55 59 5 4 25 19 46 32 34 23 40 24 69 12 30 -12
34 -11 63 15 62 58 127 108 139 108 8 0 21 12 31 26 14 22 21 25 51 19 26 -4
49 1 97 23 34 17 78 32 97 35 95 13 166 29 194 44 29 14 50 29 186 130 60 45
172 103 235 123 59 18 265 128 300 160 77 71 407 260 453 260 9 0 41 20 71 44
31 24 83 58 115 76 61 35 120 86 289 250 103 99 173 192 227 300 30 59 32 71
31 154 l-2 89 -52 49 c-42 40 -49 50 -37 58 20 13 700 13 700 1 0 -17 -43 -41
-82 -48 -42 -6 -51 -22 -15 -24 16 -1 18 -2 5 -6 -10 -2 -18 -9 -18 -14 0 -9
17 -7 58 8 6 3 12 0 12 -6 0 -7 11 -9 28 -6 l27 5 -27 -12 c-39 -16 -35 -29 4
-17 48 13 53 11 27 -10 l-24 -20 98 4 c54 3 102 7 107 10 6 4 10 0 10 -8 0
-17 82 -16 103 2 11 9 17 8 27 -4 11 -14 14 -13 27 5 17 24 31 25 54 4 17 -15
20 -15 44 0 14 9 25 12 25 7 0 -5 -4 -13 -10 -16 -5 -3 -10 -11 -10 -16 0 -6
12 -1 26 10 35 27 57 28 49 1 -7 -23 7 -26 25 -5 11 13 16 12 40 -5 32 -23 82
-25 155 -6 40 10 53 19 65 44 16 34 30 42 30 17 0 -21 17 -19 52 6 29 21 52
19 30 -3 -18 -18 -15 -30 4 -20 9 5 25 7 36 4 10 -2 28 4 39 14 21 18 28 15
43 -21 2 -5 10 -1 19 10 12 16 17 17 31 6 9 -8 26 -10 45 -6 17 3 32 2 36 -5
12 -20 26 2 20 31 l-6 28 32 -16 c30 -15 31 -17 14 -29 -28 -21 -12 -26 27
-10 26 11 38 12 46 4 9 -9 19 -6 42 10 35 26 100 31 100 7 0 -28 18 -15 30 22
l13 36 12 -30 c16 -37 34 -50 46 -32 5 9 31 14 74 16 49 1 72 7 92 23 31 24
43 18 18 -10 -27 -30 -11 -35 31 -11 33 19 38 20 53 7 14 -12 24 -13 61 -4 34
9 45 9 48 -1 2 -7 16 -17 30 -22 20 -8 30 -6 50 13 l25 23 -19 -29 -18 -29 23
8 c20 6 22 4 16 -14 -8 -26 -5 -26 55 0 37 16 53 18 68 10 15 -8 33 -7 67 4
l47 14 -21 -23 c-26 -28 -27 -36 -2 -29 10 2 25 -2 32 -10 12 -13 17 -13 37 6
18 17 26 19 41 10 10 -6 24 -8 31 -3 8 5 22 3 34 -6 26 -18 36 -18 36 1 0 8 7
15 15 15 17 0 20 25 5 35 -5 3 -10 17 -10 31 0 15 4 23 10 19 7 -4 9 18 8 64
-2 52 -6 70 -15 66 -14 -5 -15 0 -18 55 -1 19 -5 55 -9 80 l-7 45 25 -28 c15
-16 26 -22 26 -15 0 8 -6 20 -12 26 -10 10 -10 17 0 32 6 11 12 38 12 61 0 42
0 42 -20 24 -27 -24 -33 -15 -38 55 -4 53 -2 59 12 54 12 -5 16 0 16 16 0 16
4 20 15 16 11 -4 15 2 15 28 0 25 -6 35 -25 44 -23 10 -25 17 -25 69 l1 58 24
-30 25 -30 0 76 c0 59 -4 80 -17 90 -29 24 -60 120 -33 104 6 -3 10 4 10 17
l1 23 19 -24 20 -23 0 115 c0 108 -1 115 -19 110 -13 -3 -24 4 -37 26 -10 17
-24 33 -31 35 -15 6 -33 -31 -33 -65 0 -23 -61 -53 -142 -68 -29 -5 -77 -19
-107 -31 -41 -16 -82 -22 -175 -25 -126 -3 -116 8 17 20 37 4 67 11 67 17 0 7
-17 8 -46 3 -32 -4 -44 -3 -39 4 3 6 24 11 46 11 21 0 39 5 39 10 0 6 -11 10
-25 10 -31 0 -33 20 -2 20 12 1 36 7 52 15 27 12 28 13 7 14 -38 2 -17 17 42
30 50 11 86 34 74 46 -3 3 -27 -4 -53 -15 -27 -12 -58 -20 -69 -18 -14 2 4 13
51 32 46 18 70 33 67 41 -3 7 19 39 48 70 54 58 88 104 88 118 0 17 -94 108
-143 138 -66 41 -77 55 -77 96 0 27 11 44 60 95 33 33 60 68 61 77 0 9 0 44
-1 78 -1 34 3 70 9 81 6 11 36 30 68 42 32 13 76 33 98 46 22 12 55 25 73 29
17 4 32 11 32 16 0 18 -37 8 -116 -29 -43 -22 -97 -45 -119 -52 -67 -22 -132
-69 -171 -121 -35 -48 -118 -121 -214 -187 -25 -17 -60 -45 -79 -62 -43 -38
-77 -39 -196 -4 l-90 26 -100 -22 c-140 -31 -177 -46 -244 -96 -46 -34 -67
-44 -98 -44 -21 0 -71 -9 -111 -20 -39 -11 -85 -20 -102 -20 -31 0 -252 81
-331 121 -24 12 -73 45 -109 74 -72 58 -120 85 -148 85 -10 0 -40 11 -68 24
-28 14 -75 26 -110 29 -54 4 -81 14 -134 47 -8 5 -57 28 -108 51 -82 36 -99
40 -135 34 -97 -18 -104 -15 -234 83 -75 55 -136 94 -157 97 -19 4 -74 0 -123
-8 -85 -15 -141 -33 -343 -112 -124 -48 -139 -44 -260 71 -49 46 -93 84 -98
84 -5 0 -26 13 -46 29 -26 21 -56 33 -107 41 -82 14 -129 48 -185 136 -26 40
-54 65 -122 108 -49 31 -114 65 -143 75 -30 10 -87 35 -127 55 l-73 37 -104
-51 c-57 -27 -107 -50 -111 -50 -4 0 -40 -16 -80 -35 -101 -49 -120 -51 -211
-24 -72 21 -84 29 -158 99 -45 42 -103 89 -130 104 -39 20 -64 46 -110 113
-79 114 -86 118 -177 103 -121 -19 -174 -38 -220 -78 -24 -20 -77 -62 -118
-92 -41 -30 -95 -70 -120 -90 -25 -20 -60 -42 -79 -48 -21 -8 -63 -43 -110
-93 -82 -89 -121 -112 -159 -98 -36 14 -56 4 -130 -64 -59 -53 -244 -195 -312
-240 -14 -9 -67 -25 -119 -36 -55 -12 -141 -42 -208 -72 -132 -60 -142 -59
-194 18 -63 93 -101 134 -151 159 -31 16 -85 62 -143 122 -78 81 -108 105
-187 146 -104 55 -216 126 -265 169 -18 16 -65 70 -105 120 -39 51 -101 124
-137 163 -36 39 -88 97 -116 129 -38 45 -65 66 -120 91 -68 31 -75 38 -140
131 -37 54 -87 139 -110 188 -23 50 -57 108 -76 130 -31 35 -121 85 -153 85
-7 0 -42 -21 -77 -48z m3631 -712 c11 -6 40 -41 66 -78 64 -91 92 -120 136
-143 21 -11 75 -55 121 -98 46 -43 92 -81 103 -84 69 -21 162 -37 186 -32 15
4 35 2 43 -3 15 -8 13 -12 -10 -40 -20 -24 -23 -32 -11 -32 8 0 18 5 21 10 3
6 11 10 17 10 6 0 5 -7 -3 -17 -13 -15 -11 -16 16 -9 l30 7 -32 -26 c-18 -15
-33 -30 -33 -34 0 -13 67 -6 86 9 11 8 4 -2 -15 -23 -19 -20 -33 -39 -30 -41
6 -6 59 20 89 45 l25 20 -25 -7 c-14 -3 -23 -5 -20 -3 3 2 15 12 26 22 21 17
22 17 22 -8 0 -17 -10 -33 -30 -46 -19 -14 -27 -27 -23 -37 3 -8 -2 -23 -11
-33 -16 -18 -16 -19 -1 -19 20 0 22 -11 5 -28 -18 -18 12 -16 40 4 27 19 29 4
2 -21 -24 -22 -26 -35 -4 -35 10 0 14 -6 10 -15 -3 -8 1 -18 9 -23 12 -6 11
-13 -9 -42 -38 -57 -23 -150 22 -138 20 6 20 5 5 -18 -14 -23 -14 -24 6 -24
18 0 20 -3 11 -19 -14 -27 -13 -31 8 -24 15 6 15 4 -2 -15 -10 -12 -16 -28
-13 -37 4 -8 3 -15 -2 -15 -5 0 -30 -12 -56 -26 -29 -17 -42 -29 -35 -34 8 -5
7 -9 -5 -14 -9 -3 -13 -10 -10 -16 4 -6 -22 -23 -59 -39 -35 -16 -69 -38 -75
-48 -5 -11 -28 -27 -50 -37 -23 -11 -37 -24 -35 -31 3 -7 -6 -15 -21 -19 -39
-10 -78 -37 -67 -48 10 -10 44 0 37 12 -2 4 19 16 48 28 36 14 51 24 49 36 -2
9 4 16 12 16 8 0 28 12 45 26 31 26 73 50 191 109 83 42 150 99 150 129 0 12
7 31 15 42 20 27 18 63 -5 102 -12 19 -20 42 -18 51 2 10 -4 30 -12 45 -14 27
-13 28 33 67 31 27 47 48 47 64 0 13 -23 51 -54 90 -48 58 -55 73 -61 123 -3
31 -10 72 -16 90 -12 39 5 68 76 126 l45 38 43 -25 c23 -14 84 -42 136 -62
138 -55 261 -133 261 -166 0 -13 55 -85 85 -112 30 -27 73 -44 132 -52 35 -5
64 -16 89 -36 20 -16 41 -29 46 -29 5 0 46 -35 92 -78 72 -68 154 -122 186
-122 6 0 42 16 81 36 39 19 73 33 76 31 2 -3 -5 -8 -16 -12 -25 -7 -28 -25 -5
-25 9 0 12 -5 8 -12 -5 -8 -2 -9 9 -5 31 12 17 -10 -15 -24 -41 -17 -19 -24
28 -9 43 15 57 5 27 -20 -28 -23 -29 -33 -3 -25 11 3 20 5 20 3 0 -2 4 -18 9
-35 9 -32 9 -33 -32 -44 -39 -11 -40 -13 -17 -19 25 -6 24 -7 -7 -14 -22 -5
-30 -12 -26 -22 3 -8 0 -14 -6 -14 -6 0 -11 -11 -11 -25 0 -20 -6 -25 -37 -30
-68 -12 -88 -21 -101 -47 -8 -17 -23 -28 -45 -32 -37 -7 -97 -41 -97 -56 0 -5
6 -8 13 -5 6 2 50 15 97 30 174 53 292 108 315 146 4 5 40 34 81 64 79 59 90
82 53 109 -16 11 -20 21 -15 39 7 31 160 177 184 177 11 0 70 -39 133 -86 63
-48 125 -90 137 -95 15 -6 48 -5 87 3 62 11 66 10 117 -16 29 -15 76 -37 105
-47 28 -11 56 -26 63 -34 10 -12 4 -16 -34 -26 -58 -14 -76 -36 -20 -23 21 5
82 9 134 9 75 0 106 -5 145 -22 28 -12 68 -26 90 -32 22 -6 73 -38 115 -72 69
-56 158 -109 182 -109 5 0 56 -19 111 -42 83 -34 115 -42 172 -44 111 -3 117
-3 110 -14 -3 -6 1 -7 10 -4 9 4 27 1 41 -6 18 -10 30 -11 48 -2 22 10 24 8
24 -16 0 -15 -5 -33 -12 -41 -9 -12 -7 -13 13 -8 22 5 21 3 -10 -29 -28 -29
-30 -34 -13 -34 18 -1 18 -1 2 -11 -10 -5 -18 -16 -18 -23 0 -8 -7 -19 -15
-26 -8 -6 -14 -15 -13 -18 2 -20 -4 -33 -24 -53 -26 -25 -25 -25 89 22 66 28
94 48 183 132 144 136 150 143 150 180 0 32 26 96 52 130 13 17 16 17 78 -2
36 -10 97 -22 135 -25 68 -7 72 -6 95 20 37 39 140 107 140 92 0 -7 -10 -19
-21 -26 -17 -11 -20 -20 -16 -47 4 -24 1 -35 -9 -39 -8 -3 -14 -10 -14 -16 0
-6 -10 -24 -22 -41 -22 -29 -22 -31 -5 -40 12 -7 16 -17 12 -30 -5 -14 -2 -19
10 -19 11 0 15 -5 11 -15 -3 -9 0 -15 10 -15 12 0 15 -6 10 -25 -4 -17 -2 -25
7 -25 9 0 13 -12 11 -40 -3 -52 25 -64 65 -26 42 41 47 31 7 -14 -43 -47 -48
-70 -10 -45 18 11 24 13 19 4 -18 -32 -49 -58 -76 -64 -39 -9 -51 -29 -13 -21
114 22 134 17 51 -15 -23 -8 -41 -21 -40 -27 2 -7 -4 -12 -13 -12 -20 0 -74
-31 -74 -43 0 -5 19 -6 43 -2 83 12 13 -13 -85 -30 -54 -10 -98 -21 -98 -26 0
-5 5 -9 11 -9 26 0 -6 -19 -51 -30 -39 -9 -48 -15 -40 -25 8 -9 6 -14 -5 -19
-10 -4 -19 2 -25 18 -15 40 -37 39 -57 -2 l-18 -37 -110 -7 c-60 -4 -144 -11
-185 -15 -45 -5 -125 -3 -203 4 -112 11 -139 17 -224 53 -52 23 -121 46 -152
51 -31 6 -123 28 -206 49 -196 51 -315 72 -395 72 -36 -1 -148 -17 -250 -37
-180 -36 -189 -37 -355 -31 -321 10 -617 65 -870 162 -240 92 -305 111 -440
124 -66 6 -181 21 -255 32 -147 22 -269 20 -371 -6 -30 -8 -142 -47 -249 -86
-271 -100 -296 -108 -460 -137 -164 -30 -438 -40 -418 -16 7 9 6 15 -6 19 -12
5 -14 10 -6 19 8 9 7 15 -2 18 -9 4 -8 9 6 18 17 11 18 13 4 23 -14 10 -5 20
59 66 41 30 89 73 108 95 55 67 125 135 138 135 6 0 37 -7 67 -15 60 -16 148
-21 100 -5 -14 4 -59 16 -101 25 l-75 18 -45 -26 c-24 -14 -62 -29 -84 -32
-73 -13 -239 -77 -282 -110 -24 -18 -85 -50 -136 -70 -73 -30 -110 -38 -178
-43 -82 -4 -90 -3 -150 27 -48 24 -79 49 -124 102 -121 143 -205 204 -459 336
-126 66 -193 106 -220 135 l-39 41 24 18 c45 34 209 98 292 115 52 10 109 30
157 56 41 21 65 31 53 20 l-21 -19 30 -30 30 -30 -26 -41 c-14 -23 -23 -48
-20 -56 3 -9 -3 -20 -15 -28 -26 -16 -27 -28 -3 -28 12 0 3 -14 -30 -45 -26
-25 -43 -45 -39 -45 5 0 62 40 127 90 76 57 125 102 136 124 10 19 24 39 30
43 33 21 127 136 138 167 10 30 8 43 -14 97 l-25 61 50 -6 50 -7 99 101 c54
55 106 100 116 100 16 0 16 -1 -1 -20 -22 -24 -14 -25 28 -3 31 16 32 16 17
-3 -8 -10 -23 -29 -33 -41 -18 -21 -17 -63 3 -63 5 0 46 28 92 63 108 82 121
89 76 41 -21 -22 -38 -44 -38 -49 0 -5 -17 -26 -37 -47 -20 -21 -31 -38 -24
-38 7 0 11 -6 8 -14 -6 -15 13 -76 23 -76 3 0 41 23 85 50 72 46 95 57 95 46
0 -2 -25 -22 -55 -45 -31 -23 -53 -46 -50 -51 3 -6 0 -7 -8 -4 -14 5 -73 -54
-63 -64 3 -3 38 18 78 45 130 89 118 65 -15 -29 -62 -44 -66 -50 -61 -77 6
-26 -1 -38 -45 -88 -48 -53 -50 -58 -31 -63 21 -5 21 -5 -4 -29 -14 -14 -26
-33 -26 -43 0 -11 -10 -20 -27 -24 -55 -13 -119 -53 -166 -103 -26 -27 -47
-54 -47 -58 0 -5 -18 -29 -40 -53 -22 -24 -37 -46 -34 -49 3 -3 -14 -10 -37
-16 -24 -5 -44 -16 -47 -23 -3 -11 0 -12 16 -3 10 6 22 8 25 5 7 -8 -14 -54
-24 -54 -11 0 -63 -69 -57 -76 3 -2 40 9 81 25 42 17 82 28 90 25 19 -7 56 30
127 126 48 65 61 90 57 110 -3 14 -8 41 -12 60 l-6 35 126 60 c69 33 131 62
138 64 7 2 31 20 53 40 23 20 60 51 84 70 23 18 66 66 95 105 29 39 74 91 99
116 45 43 57 72 35 86 -7 4 -9 22 -6 47 5 36 1 45 -32 86 -21 25 -41 59 -45
74 -6 23 -18 34 -67 55 l-60 26 3 49 c4 65 27 83 138 101 108 18 117 18 140 6z
m-5460 -1875 c46 -70 103 -127 171 -171 24 -16 46 -30 48 -31 3 -2 0 -8 -5
-13 -12 -12 -78 12 -91 33 -4 7 -20 18 -35 24 -25 11 -28 11 -28 -7 0 -11 -3
-20 -8 -20 -4 0 -6 18 -4 40 3 25 0 40 -7 40 -6 0 -11 -6 -11 -14 0 -14 -28
-42 -35 -34 -2 2 2 26 10 53 18 58 12 72 -9 21 -8 -20 -17 -36 -19 -36 -3 0
-3 21 0 48 4 47 4 47 -14 24 -18 -22 -18 -21 -15 43 2 36 5 65 7 65 1 0 22
-29 45 -65z m10920 -15 c0 -5 -14 -25 -30 -44 -19 -21 -27 -37 -20 -41 7 -4 1
-18 -15 -37 -14 -16 -25 -33 -25 -36 0 -12 15 -29 28 -33 8 -3 -4 -17 -31 -37
-53 -38 -57 -38 -57 -11 0 16 4 19 20 14 33 -11 22 11 -20 39 -22 14 -42 37
-46 51 -9 36 -40 33 -48 -5 -3 -17 -28 -54 -56 -84 -27 -29 -50 -62 -50 -73 0
-11 -9 -28 -20 -38 -24 -21 -26 -45 -5 -45 18 0 18 -2 3 -35 -15 -33 -36 -32
-49 3 -6 15 -15 35 -20 44 -12 24 -11 28 6 28 22 0 18 15 -7 27 -16 7 -29 30
-42 69 l-18 57 22 17 23 17 -26 18 c-15 9 -24 21 -21 27 3 5 1 15 -5 22 -13
16 3 19 174 36 235 24 276 30 302 44 34 18 33 18 33 6z m-1382 -46 c68 -28
117 -40 225 -55 128 -17 149 -17 275 -4 75 8 154 15 176 15 35 0 38 -2 31 -22
-7 -21 -11 -50 -14 -105 0 -11 -17 -40 -36 -63 -41 -50 -43 -60 -11 -60 42 0
40 -20 -8 -69 -42 -42 -44 -47 -28 -58 12 -7 24 -8 36 -1 21 12 34 2 18 -14
-20 -20 -14 -29 16 -22 20 5 13 -3 -27 -28 -40 -26 -49 -37 -37 -41 22 -9 20
-24 -5 -38 -28 -15 -37 -1 -34 54 2 25 -4 52 -15 70 -20 32 -16 64 7 69 11 2
7 12 -16 42 -36 45 -39 64 -11 74 18 7 16 12 -26 62 -25 30 -48 67 -51 83 -3
15 -8 27 -12 27 -13 -1 -91 -154 -86 -170 3 -11 -1 -20 -11 -24 -8 -3 -14 -12
-11 -19 2 -6 -5 -27 -15 -45 -23 -42 -23 -42 10 -42 26 0 25 -1 -13 -23 l-40
-23 -6 29 c-4 16 -20 43 -37 60 -16 18 -33 42 -37 55 -9 31 -19 28 -54 -16
-21 -27 -27 -42 -20 -49 7 -7 4 -15 -11 -26 -20 -14 -20 -16 -5 -24 15 -9 13
-12 -9 -27 -14 -9 -26 -23 -26 -30 0 -8 -12 -22 -27 -32 l-28 -18 35 -9 35 -9
-32 -16 c-38 -18 -43 -32 -10 -32 18 0 19 -2 7 -10 -25 -16 -59 -11 -72 10
-16 25 -28 26 -28 1 0 -10 12 -27 27 -36 25 -16 25 -19 9 -31 -16 -11 -16 -13
6 -16 12 -2 24 -11 26 -21 4 -17 2 -18 -27 -2 -17 8 -31 20 -31 25 0 4 -13 15
-30 24 -27 13 -30 13 -30 -2 0 -12 -4 -11 -23 6 -13 12 -31 22 -41 22 -14 0
-17 5 -13 22 4 12 2 27 -3 33 -13 16 8 76 25 73 8 -2 20 6 28 16 14 19 15 18
22 -12 7 -35 25 -44 25 -12 0 22 8 25 30 10 13 -8 13 -11 1 -19 -11 -7 -9 -11
9 -21 34 -18 46 8 18 37 l-21 23 27 0 27 0 -20 28 c-14 20 -17 32 -10 39 6 6
11 27 12 47 2 33 5 37 25 33 38 -7 25 8 -28 33 -33 15 -47 27 -41 33 7 7 16 6
26 -3 13 -11 15 -9 15 11 0 13 -9 39 -20 57 -13 21 -18 42 -14 54 4 13 -1 27
-14 41 -25 28 -72 99 -72 109 0 15 32 8 118 -28z m-102 -31 c16 -25 24 -55 26
-103 0 -8 -3 -36 -7 -61 -7 -44 -6 -47 26 -69 19 -13 36 -25 39 -27 3 -3 -5
-12 -17 -21 -19 -15 -21 -22 -13 -62 4 -25 7 -47 5 -49 -3 -2 -21 15 -42 39
-36 40 -48 69 -60 153 -5 35 -3 37 21 37 29 0 31 4 15 49 -6 17 -18 31 -26 31
-12 0 -14 7 -9 31 3 17 6 42 6 55 0 32 14 30 36 -3z m-9487 -78 c22 -57 28
-121 12 -111 -5 4 -12 24 -16 46 -4 22 -12 43 -17 46 -7 5 -9 -1 -5 -17 3 -13
9 -46 12 -74 l7 -50 -23 35 -23 35 -7 -25 c-4 -14 -7 -51 -8 -82 -1 -84 -31
-87 -31 -3 0 35 -16 56 -25 33 -3 -7 -1 -35 4 -61 10 -54 4 -90 -13 -84 -6 2
-14 20 -17 40 -9 59 -19 55 -19 -6 0 -59 -16 -86 -23 -40 -4 27 -4 27 -12 6
-12 -37 -24 -26 -23 20 0 35 9 52 48 102 67 85 128 181 135 215 10 44 21 37
44 -25z m10075 -85 c24 -36 24 -40 8 -40 -33 0 -32 -11 3 -58 42 -53 44 -65
10 -52 -30 11 -30 13 -6 -40 11 -24 17 -49 14 -56 -2 -6 5 -18 16 -26 18 -13
19 -19 10 -50 -7 -29 -16 -38 -39 -43 -17 -4 -35 -15 -40 -26 -6 -10 -15 -19
-21 -19 -15 0 -1 82 17 96 8 7 12 19 8 29 -5 11 -1 21 10 27 13 7 14 13 4 31
-6 12 -18 27 -26 33 -11 8 -12 16 -5 30 7 13 7 41 0 85 -8 56 -5 119 7 119 2
0 15 -18 30 -40z m-9941 -61 c20 -15 60 -35 88 -45 l50 -18 -7 -41 c-3 -22 -8
-42 -11 -45 -8 -9 -23 25 -21 49 2 13 -3 26 -9 28 -9 3 -13 -7 -13 -31 0 -48
-20 -57 -21 -9 l-1 38 -13 -30 c-8 -16 -14 -41 -15 -54 0 -17 -3 -22 -10 -15
-6 6 -6 22 0 44 11 39 13 77 4 67 -3 -3 -12 -23 -19 -44 l-14 -38 -1 45 -2 45
-13 -29 -13 -30 -7 32 c-3 18 -4 46 0 62 8 37 0 38 -19 3 -18 -33 -22 -10 -6
32 11 28 11 28 73 -16z m9002 -93 c3 -17 7 -42 9 -56 1 -14 6 -33 10 -43 5 -9
5 -32 2 -51 -5 -28 -2 -40 20 -66 31 -37 23 -53 -23 -44 -20 4 -34 14 -38 28
-7 20 -7 20 -12 1 -3 -11 -10 -26 -16 -34 -10 -11 -13 -9 -17 10 -4 13 -3 37
0 54 5 23 12 31 35 35 17 3 30 11 29 18 -3 33 -4 34 -19 22 -12 -10 -15 -10
-15 3 0 8 -3 30 -7 48 -6 32 -5 33 12 19 17 -14 17 -13 12 20 -3 19 -9 49 -13
65 -6 27 -6 29 9 16 9 -7 19 -27 22 -45z m1340 -14 c6 -4 20 -22 33 -40 l23
-32 -26 -10 c-14 -5 -25 -14 -25 -20 0 -5 -7 -10 -15 -10 -12 0 -13 -4 -5 -19
18 -34 11 -47 -9 -17 -19 28 -19 28 -26 6 l-7 -22 -29 28 c-49 47 -31 104 41
133 31 12 33 12 45 3z m-10194 -221 c22 -17 72 -42 110 -57 78 -31 84 -36 85
-79 0 -16 4 -38 8 -47 6 -14 3 -18 -13 -18 -22 0 -28 15 -34 80 -2 29 -4 32
-11 15 -33 -81 -41 -95 -53 -95 -16 0 -16 1 -3 36 6 15 8 41 4 58 l-7 31 -22
-50 c-24 -55 -49 -82 -60 -66 -3 6 -1 20 5 32 7 11 10 30 7 40 -3 11 -1 34 4
51 15 53 -13 15 -33 -45 -17 -51 -18 -51 -13 -12 2 22 7 51 11 65 6 24 6 25
-10 5 -15 -19 -16 -19 -14 15 1 19 -2 43 -6 53 -11 24 -2 21 45 -12z m9879
-20 l-25 -19 28 -7 27 -7 -26 -20 c-32 -26 -44 -56 -33 -85 9 -23 -4 -33 -16
-13 -9 15 -25 2 -18 -15 6 -16 -12 -21 -22 -5 -3 5 -12 7 -20 3 -8 -3 -15 0
-15 7 0 8 -8 10 -21 7 -19 -5 -21 -2 -17 24 3 20 0 29 -9 29 -14 0 -16 10 -7
34 9 24 42 2 47 -31 l3 -28 13 33 c10 24 18 31 31 27 11 -3 20 0 23 10 4 9 13
12 23 8 14 -5 15 -3 5 15 -17 31 -14 40 17 45 15 2 29 5 32 5 3 1 -6 -7 -20
-17z m-668 -80 c24 7 34 5 40 -5 4 -7 21 -19 38 -26 35 -15 37 -21 10 -38 -12
-7 -18 -17 -15 -22 13 -22 -11 -8 -32 18 l-23 27 6 -31 c7 -40 -10 -52 -30
-22 -16 22 -16 21 -16 -20 0 -46 -5 -50 -32 -26 -16 15 -18 15 -24 0 -8 -20
-24 -11 -24 14 0 22 28 53 41 45 5 -4 9 -1 9 4 0 6 -6 11 -14 11 -25 0 -29 20
-11 61 17 37 19 38 32 20 11 -16 18 -18 45 -10z m-6511 -451 c49 -49 58 -62
50 -77 -6 -10 -15 -45 -22 -77 -13 -71 -29 -59 -29 24 0 80 -19 102 -21 25 -2
-119 -13 -117 -42 7 -15 63 -27 125 -27 137 0 36 29 24 91 -39z m-147 28 c4
-13 9 -79 11 -148 3 -106 2 -113 -4 -45 -12 121 -21 174 -32 180 -13 8 -12
-92 2 -116 12 -23 40 -251 46 -379 4 -82 3 -89 -30 -150 -31 -60 -55 -80 -64
-55 -1 6 16 35 38 65 27 36 33 47 15 31 -27 -25 -34 -15 -16 20 8 15 7 19 -5
19 -18 0 -19 5 -5 31 7 13 7 19 0 19 -5 0 -10 8 -11 18 -1 11 -4 9 -9 -8 l-8
-25 -1 25 c-1 14 -8 79 -16 145 -8 66 -15 140 -15 165 0 55 -10 96 -20 81 -3
-6 2 -80 11 -164 29 -245 30 -261 20 -277 -5 -8 -12 -12 -15 -9 -3 2 -17 96
-32 207 -16 111 -32 202 -36 202 -12 0 -10 -34 7 -146 15 -100 20 -223 9 -211
-10 9 -53 266 -54 313 0 41 17 74 82 155 33 40 35 37 47 -86 15 -150 45 -345
53 -345 5 0 8 26 8 57 0 31 -3 53 -7 49 -5 -4 -17 77 -29 181 -21 187 -21 188
-1 206 27 24 53 21 61 -5z m-3248 -210 c-1 -42 3 -87 11 -107 16 -41 17 -90 2
-128 -10 -27 -11 -27 -22 -8 -6 11 -15 45 -19 75 -4 30 -11 75 -17 100 -8 36
-9 26 -4 -51 5 -94 0 -139 -16 -139 -13 0 -43 89 -48 142 -3 27 -9 45 -14 42
-12 -7 -11 -88 2 -143 5 -24 7 -51 3 -60 -9 -23 -53 94 -54 144 0 30 -3 36
-10 25 -12 -18 -3 -84 16 -122 13 -24 12 -33 -1 -65 l-16 -37 -20 29 c-17 25
-19 41 -15 100 6 72 2 78 -9 13 -8 -48 -24 -50 -21 -3 3 37 -12 47 -33 21 -9
-11 -9 -25 0 -59 8 -35 8 -50 -2 -68 l-12 -24 -10 25 c-5 14 -14 35 -19 47 -6
12 -8 33 -4 47 3 14 2 26 -3 26 -13 0 -23 -72 -16 -113 8 -40 -8 -58 -24 -28
-13 24 -14 91 -2 124 6 15 30 33 71 51 63 29 250 160 279 196 9 11 19 20 23
20 3 0 5 -33 4 -72z m3454 -11 c0 -10 7 -20 15 -23 28 -11 14 -29 -83 -106
-71 -56 -98 -72 -99 -60 -1 10 -4 54 -5 99 -3 86 6 92 17 11 8 -57 25 -64 26
-10 0 20 4 46 8 57 7 17 9 16 15 -13 9 -36 26 -34 26 4 0 14 4 22 10 19 6 -3
10 -17 10 -31 0 -13 4 -24 9 -24 11 0 17 17 26 79 5 30 10 39 16 30 5 -8 9
-22 9 -32z m158 -114 c39 -60 81 -130 92 -156 20 -44 20 -54 9 -100 -6 -29
-18 -64 -25 -78 -11 -23 -10 -39 13 -125 15 -54 27 -121 28 -149 1 -27 5 -78
9 -112 7 -58 6 -63 -11 -63 -10 0 -24 -5 -31 -12 -8 -8 -12 -9 -12 -1 0 6 8
20 18 29 19 19 21 20 -33 -2 -10 -4 -15 0 -15 11 0 12 -5 15 -17 10 -45 -18
-53 -18 -53 4 0 12 7 24 15 27 8 4 15 11 15 16 0 6 -16 1 -36 -11 -19 -12 -37
-21 -40 -21 -12 0 -2 76 13 92 16 18 16 19 -10 9 -24 -9 -27 -8 -27 9 0 26
-20 25 -54 -1 -21 -16 -26 -17 -26 -5 0 8 10 22 23 31 22 16 22 16 -8 9 l-30
-7 25 28 c25 27 25 27 3 21 -27 -9 -30 1 -5 21 15 12 14 13 -10 7 -32 -7 -35
1 -10 29 16 19 16 20 -5 8 -12 -6 -30 -11 -40 -11 -15 1 -13 5 10 25 36 32 27
32 -29 -1 -24 -14 -44 -23 -44 -19 0 4 19 25 43 47 42 40 37 42 -15 6 -39 -27
-35 -9 4 26 l33 28 -47 -26 c-50 -28 -63 -21 -26 14 29 26 8 26 -26 -1 -33
-26 -34 -10 0 30 14 17 21 31 15 31 -5 0 -17 -10 -25 -22 -9 -12 -19 -19 -23
-15 -3 4 3 20 15 36 29 39 43 106 35 168 l-5 50 102 83 c57 46 110 96 119 112
9 15 19 28 22 28 4 0 38 -48 77 -107z m-908 -171 c41 -16 98 -44 125 -64 55
-39 128 -78 206 -109 29 -11 89 -38 133 -59 73 -35 85 -46 124 -102 42 -63 69
-128 52 -128 -5 0 -12 9 -15 20 -5 16 -25 29 -25 16 0 -14 81 -175 94 -185 9
-8 4 10 -14 45 -39 77 -38 91 1 28 18 -27 52 -71 76 -99 54 -59 103 -129 103
-145 0 -9 -20 -10 -72 -5 -102 10 -171 30 -258 72 -72 36 -80 37 -203 41
l-127 4 -16 33 c-14 31 -101 122 -154 163 -39 30 -186 102 -228 110 -34 8 -37
11 -34 41 1 18 11 50 22 71 25 48 25 45 -2 70 l-23 21 28 52 c30 58 99 137
119 137 7 0 47 -13 88 -28z m-78 -429 c109 -56 230 -169 247 -230 10 -34 8
-39 -47 -110 -74 -97 -105 -140 -175 -250 -33 -50 -70 -96 -83 -102 -36 -16
-40 -14 -18 11 16 18 9 16 -40 -11 -75 -41 -68 -20 13 42 36 27 55 47 45 47
-9 0 -31 -11 -48 -24 -18 -13 -40 -25 -51 -27 -11 -3 -20 -9 -20 -14 0 -16
-15 -35 -27 -35 -6 0 -5 7 3 17 10 11 10 14 2 9 -7 -4 -13 -3 -13 2 0 5 27 30
61 57 33 26 58 50 55 52 -3 3 -22 -8 -43 -24 -48 -37 -114 -75 -120 -69 -3 2
25 28 61 56 36 29 66 54 66 56 0 6 -111 -51 -152 -77 -18 -12 -25 -19 -15 -15
9 3 17 1 17 -5 0 -14 -32 -7 -37 7 -2 6 32 40 77 74 44 35 80 65 80 67 0 11
-25 -5 -95 -62 -44 -36 -86 -63 -92 -60 -7 2 -13 -2 -13 -10 0 -7 -5 -17 -11
-21 -8 -5 -10 1 -7 19 3 15 0 28 -5 30 -6 2 20 25 56 53 37 27 67 53 67 57 0
14 -82 -38 -118 -75 -37 -39 -58 -49 -49 -24 3 8 1 16 -4 18 -5 2 12 20 39 40
26 21 57 48 68 60 22 26 16 22 -79 -52 -65 -50 -69 -52 -85 -36 -16 17 -14 20
33 62 60 53 54 56 -20 9 -79 -51 -97 -53 -45 -6 31 29 40 41 28 41 -22 0 -23
23 -2 41 13 10 17 10 24 -1 4 -7 15 -10 23 -7 8 3 19 1 25 -5 13 -13 27 -5
135 81 43 34 82 72 86 84 4 12 11 52 15 90 5 55 4 68 -9 73 -8 4 -15 18 -14
33 l0 26 10 -24 c15 -38 32 -11 28 43 -4 48 -1 54 19 34 7 -7 12 -8 12 -2 0 6
-5 15 -12 22 -9 9 -4 12 24 12 24 0 69 -17 130 -47z m-2148 -29 c10 -25 8 -30
-29 -78 -19 -25 -30 -46 -25 -46 6 0 10 4 10 9 0 5 8 12 18 15 9 3 25 18 34
33 l17 28 25 -58 c14 -32 26 -64 26 -72 0 -8 -20 -46 -45 -85 -25 -39 -45 -78
-45 -88 0 -28 -12 -62 -21 -62 -25 0 0 137 30 160 20 15 55 89 46 98 -2 3 -12
-10 -22 -28 -10 -18 -33 -53 -51 -79 -32 -47 -45 -70 -57 -105 -3 -12 -9 -16
-15 -10 -11 11 18 99 45 140 8 13 15 28 15 35 0 6 14 27 30 46 27 30 38 53 26
53 -3 0 -30 -34 -62 -75 -31 -42 -58 -74 -61 -71 -2 2 7 27 21 54 14 28 23 58
20 67 -4 9 2 28 13 43 11 15 26 38 33 51 11 22 10 23 -5 17 -15 -5 -16 -4 -5
9 16 19 26 19 34 -1z m-734 -80 c0 -8 10 -38 22 -66 14 -33 18 -52 10 -56 -7
-5 -7 -21 0 -54 8 -32 8 -55 1 -70 -8 -19 -11 -14 -17 39 -4 34 -13 67 -21 73
-8 7 -17 27 -21 46 -3 19 -11 37 -16 40 -14 9 0 -55 20 -86 20 -32 23 -145 3
-145 -16 0 -41 75 -41 126 0 20 -6 42 -14 49 -8 6 -17 21 -19 33 -3 20 -4 20
-11 4 -6 -12 -3 -24 8 -36 19 -21 22 -124 5 -168 l-11 -28 -18 45 c-10 25 -22
64 -25 88 -12 73 -21 46 -18 -53 3 -100 -2 -110 -41 -82 -16 12 -17 19 -5 76
10 54 10 65 -3 78 -14 13 -16 5 -20 -76 -5 -102 -17 -127 -42 -88 -11 15 -16
41 -14 68 2 34 -1 44 -12 44 -8 0 -16 -6 -16 -12 -1 -7 -2 -19 -3 -27 -1 -17
-28 -46 -43 -46 -7 0 -8 15 -4 40 8 50 1 51 -21 3 -20 -42 -43 -55 -43 -24 0
29 -16 34 -45 15 -14 -9 -29 -14 -32 -10 -12 11 20 33 82 56 33 12 99 46 146
76 47 30 103 60 124 65 21 6 61 26 89 45 57 38 66 41 66 18z m2456 -154 c28
-80 29 -89 4 -120 l-20 -25 -1 40 c-1 38 -2 38 -8 10 -8 -38 -14 -28 -35 60
-34 136 -34 136 -36 15 -1 -127 -9 -123 -30 15 -8 50 -16 82 -18 72 -2 -10 4
-64 12 -119 13 -82 14 -103 4 -110 -27 -16 -36 -7 -43 45 -14 111 -27 177 -36
177 -5 0 -7 -10 -4 -22 19 -87 25 -150 16 -166 -12 -21 -13 -18 -34 93 l-14
80 1 -77 c0 -43 4 -78 9 -78 11 0 8 -35 -5 -48 -21 -21 -41 -14 -36 13 3 14 1
28 -3 31 -5 3 -9 24 -10 47 -1 63 -17 95 -18 36 -1 -31 -6 -49 -15 -52 -17 -7
-26 13 -26 53 0 16 -4 32 -10 35 -5 3 -10 0 -10 -8 0 -17 -44 -59 -53 -50 -14
13 -7 51 11 58 9 4 49 18 87 32 39 14 96 39 128 54 31 16 74 33 95 37 35 8 38
7 56 -27 11 -20 30 -65 42 -101z m1042 -48 l72 -37 -29 -35 c-22 -25 -30 -30
-31 -18 0 9 5 20 10 23 16 10 12 25 -5 19 -8 -3 -24 -22 -36 -42 -20 -33 -22
-35 -29 -17 -5 13 -1 31 12 53 20 32 13 43 -11 20 -10 -11 -11 -7 -5 17 l7 30
-37 -34 c-42 -40 -49 -31 -9 11 15 15 22 28 16 28 -11 0 -73 -65 -92 -96 -9
-16 -12 -17 -20 -4 -17 26 56 120 93 120 12 -1 54 -18 94 -38z m-3027 -94 c15
-41 37 -91 48 -109 15 -25 21 -51 21 -96 0 -117 -37 -77 -49 52 -4 48 -14 82
-30 109 -13 21 -27 52 -31 70 l-8 31 -1 -30 c-1 -47 18 -104 39 -115 21 -11
25 -42 14 -99 -7 -33 -24 -43 -24 -13 0 10 -14 39 -30 64 -39 58 -42 137 -8
201 16 30 31 14 59 -65z m981 15 c64 -31 119 -62 122 -69 7 -18 -18 -87 -33
-92 -9 -3 -10 6 -6 32 8 42 -1 48 -15 10 -14 -37 -30 -20 -31 34 -1 26 -3 38
-6 27 -16 -77 -36 -126 -52 -123 -10 2 -15 12 -14 28 3 26 3 48 0 100 -2 36
-21 34 -25 -3 -2 -15 -8 -27 -13 -27 -5 0 -9 -22 -9 -49 0 -55 -7 -81 -22 -81
-14 0 -1 200 14 217 6 8 8 16 4 20 -12 13 -35 -33 -36 -72 0 -22 -7 -49 -15
-59 -14 -18 -15 -17 -16 25 -1 42 -1 43 -10 14 -5 -16 -13 -49 -19 -72 -16
-66 -28 -51 -24 29 3 62 8 79 36 120 18 26 38 48 43 48 6 0 63 -25 127 -57z
m-1049 -152 c15 -18 29 -50 33 -76 3 -25 17 -61 29 -79 39 -57 43 -106 9 -106
-16 0 -100 168 -110 219 -4 17 -11 34 -16 37 -11 7 -1 -37 24 -101 51 -128 52
-135 23 -135 -16 0 -31 24 -56 95 -13 35 -18 42 -18 25 0 -14 8 -50 19 -80 11
-30 19 -81 20 -112 0 -51 -2 -58 -20 -58 -16 0 -20 7 -20 38 0 20 -7 51 -16
67 -9 17 -22 48 -29 70 -11 33 -13 35 -14 15 -1 -14 8 -43 19 -65 22 -42 21
-49 -3 -39 -18 7 -41 68 -34 88 3 7 1 19 -4 27 -17 27 -9 -62 12 -142 12 -43
19 -86 15 -96 -8 -19 -9 -17 -51 102 -29 81 -36 94 -29 55 3 -19 14 -58 25
-85 23 -60 29 -106 13 -112 -6 -2 -16 17 -22 44 -6 26 -18 71 -26 98 l-15 50
0 -65 c1 -117 -1 -140 -11 -140 -5 0 -10 9 -10 20 0 12 -7 35 -16 52 -9 16
-13 40 -10 52 3 11 1 28 -4 36 -18 28 -11 -80 7 -111 15 -24 15 -32 3 -54 -7
-14 -17 -25 -21 -25 -11 0 -39 77 -40 108 0 15 -11 -9 -25 -58 -14 -46 -27
-86 -29 -89 -11 -10 -54 31 -60 57 -5 27 3 38 92 129 55 56 115 129 136 166
21 35 50 75 64 88 29 28 107 139 97 139 -4 0 1 9 12 21 l19 21 6 -30 c3 -17
18 -45 32 -61z m607 12 c0 -3 -8 -30 -17 -60 -14 -45 -15 -59 -4 -89 14 -38
12 -42 -65 -197 -13 -26 -24 -61 -24 -77 0 -31 -13 -37 -39 -21 -12 8 -10 23
12 99 15 49 27 103 27 119 0 17 9 42 20 56 29 36 60 107 60 138 0 14 3 29 7
32 8 9 23 9 23 0z m36 -96 c5 -74 -14 -185 -53 -317 -14 -49 -17 -52 -24 -30
-17 59 -10 134 21 197 27 59 28 65 15 97 -11 26 -12 42 -5 63 15 41 33 74 37
69 3 -2 7 -38 9 -79z m-1175 36 c0 -16 4 -37 9 -48 5 -14 0 -34 -19 -67 -14
-27 -30 -48 -35 -48 -5 0 -6 28 -3 63 4 40 3 55 -3 42 -5 -11 -9 -47 -10 -80
-1 -71 -31 -170 -51 -170 -8 0 -12 7 -10 15 7 27 30 155 30 169 2 33 -10 -1
-19 -54 -9 -55 -23 -85 -35 -73 -11 11 24 155 48 197 22 38 69 81 90 81 4 0 7
-12 8 -27z m1245 -61 c0 -31 4 -80 8 -108 7 -42 5 -57 -14 -93 -12 -24 -22
-65 -23 -92 -3 -59 -11 -68 -32 -36 -15 23 -15 39 -4 164 7 76 12 154 11 173
-1 19 0 45 3 58 5 21 7 22 28 7 18 -13 22 -25 23 -73z m-235 21 c-14 -48 -14
-66 -1 -58 6 3 10 16 10 28 1 12 7 33 15 47 14 25 14 25 15 -16 0 -22 -7 -49
-15 -60 -8 -10 -15 -32 -15 -48 0 -36 -58 -226 -69 -226 -4 0 -15 8 -25 19
-15 17 -15 21 5 67 15 36 20 62 16 99 -3 35 1 65 15 100 36 93 71 127 49 48z
m304 1 c20 -13 25 -25 25 -56 0 -21 -7 -52 -15 -68 -8 -16 -25 -70 -36 -120
-19 -83 -22 -89 -40 -80 -25 14 -24 29 7 103 24 55 25 66 15 105 -14 53 -14
88 -1 113 13 23 14 23 45 3z m86 -50 c22 -11 29 -20 24 -32 -4 -9 -10 -42 -14
-72 -4 -34 -16 -68 -31 -87 -13 -18 -28 -57 -34 -86 -17 -85 -31 -73 -34 31
-2 76 1 101 18 140 12 26 22 64 23 85 1 42 5 43 48 21z m124 -68 c15 -11 17
-22 12 -72 -11 -105 -59 -214 -94 -214 -17 0 -17 11 1 35 7 10 11 26 9 36 -3
9 3 31 12 48 12 24 14 46 9 91 -10 86 6 109 51 76z"/>
<path d="M7320 5821 c-36 -9 -70 -33 -70 -51 0 -8 -19 -26 -43 -40 -53 -32
-187 -169 -187 -192 0 -9 5 -20 11 -24 7 -4 -10 -17 -41 -32 -29 -14 -55 -33
-57 -43 -3 -10 -21 -23 -40 -30 -19 -6 -39 -20 -46 -30 -7 -11 -40 -38 -74
-61 -35 -22 -63 -44 -63 -49 0 -14 6 -12 66 27 31 20 116 68 188 106 162 86
163 87 149 132 -11 35 -11 36 36 62 25 15 104 68 175 117 115 79 133 89 163
84 18 -3 45 -15 59 -26 14 -11 51 -27 82 -36 34 -10 84 -37 123 -66 37 -27 69
-49 73 -49 17 0 2 23 -31 45 -21 14 -53 36 -71 50 -19 13 -59 31 -90 40 -31 9
-65 24 -74 32 -40 36 -162 54 -238 34z"/>
<path d="M10070 5502 c0 -25 230 -92 315 -92 45 0 65 -5 89 -23 17 -13 57 -38
89 -56 31 -18 57 -36 57 -41 0 -22 -206 -24 -360 -5 -32 5 -41 3 -29 -4 27
-17 187 -32 318 -29 140 3 119 9 293 -86 48 -26 93 -46 100 -43 7 2 -20 20
-60 41 -39 20 -97 52 -127 71 -30 19 -58 35 -64 35 -5 0 -29 16 -53 36 -23 20
-63 45 -88 56 -25 11 -56 30 -70 42 -21 20 -39 24 -115 29 -81 4 -180 30 -277
72 -10 4 -18 3 -18 -3z"/>
<path d="M3871 2555 c3 -2 23 -9 45 -14 38 -9 37 -9 -23 -10 -35 -1 -63 -5
-63 -11 0 -5 5 -10 11 -10 20 0 3 -23 -19 -25 -29 -2 -32 -7 -25 -33 3 -12 16
-25 30 -28 22 -6 22 -7 6 -20 -10 -7 -30 -14 -45 -14 -15 0 -30 -4 -33 -10 -4
-6 18 -10 59 -10 37 0 66 4 66 10 0 6 10 10 23 10 21 1 22 1 3 15 -19 14 -18
15 15 16 l34 0 -40 20 -40 19 40 -5 c22 -3 46 -1 54 4 8 5 25 5 42 -1 15 -5
36 -8 46 -6 11 2 -11 15 -52 31 -68 27 -69 28 -25 23 25 -3 61 -8 80 -12 59
-11 22 11 -65 40 -71 23 -137 34 -124 21z"/>
<path d="M3770 6685 c0 -3 29 -48 65 -100 79 -115 79 -115 -110 -52 -157 53
-185 60 -185 49 0 -9 218 -83 345 -118 70 -19 136 -58 185 -109 50 -53 150
-128 158 -120 4 4 -6 17 -22 29 -16 11 -60 48 -98 81 -38 33 -100 87 -139 120
-38 33 -96 97 -129 143 -56 75 -70 91 -70 77z"/>
<path d="M3604 6165 c4 -10 -1 -15 -14 -15 -11 0 -20 -7 -20 -15 0 -9 9 -15
25 -15 14 0 25 -4 25 -10 0 -5 -4 -10 -10 -10 -5 0 -10 -4 -10 -9 0 -4 12 -6
26 -3 19 3 25 1 20 -7 -7 -10 6 -16 28 -12 5 1 6 -5 3 -14 -5 -12 2 -15 35
-15 34 0 39 -2 29 -14 -10 -11 -8 -16 9 -21 14 -4 26 -1 33 8 22 26 45 27 61
2 15 -22 15 -25 -2 -33 -9 -6 -32 -13 -49 -17 -37 -7 -45 -25 -12 -25 17 0 19
-3 10 -14 -13 -15 3 -25 42 -27 19 0 18 -2 -5 -11 -39 -14 -35 -28 10 -28 36
-1 36 -1 13 -14 l-23 -13 32 -7 c18 -3 44 -6 59 -7 23 -1 22 -2 -9 -11 -53
-15 -60 -28 -14 -29 21 -1 50 -4 64 -8 23 -7 22 -8 -15 -15 -100 -18 -103 -36
-5 -36 40 0 70 -4 70 -10 0 -5 -11 -10 -25 -10 -37 0 -30 -18 8 -22 l32 -3
-45 -23 -45 -23 65 5 c36 2 58 2 50 -1 -70 -26 -101 -52 -62 -54 13 0 13 -2
-4 -9 -23 -9 -41 -30 -26 -30 12 0 123 20 147 27 13 3 17 2 10 -5 -5 -5 -54
-19 -107 -31 -54 -13 -98 -27 -98 -33 0 -5 6 -8 14 -5 49 19 276 44 276 30 0
-4 -44 -18 -97 -30 -54 -12 -121 -27 -150 -34 -45 -11 -60 -10 -106 4 -30 9
-66 17 -81 17 -29 0 -278 -49 -285 -56 -11 -10 72 -2 153 16 108 24 155 25
203 5 19 -8 52 -15 72 -15 25 0 56 -13 101 -40 129 -80 317 -140 436 -140 42
0 53 -4 56 -18 4 -15 26 -23 94 -37 66 -14 95 -26 117 -46 18 -18 44 -29 75
-34 26 -4 63 -15 82 -26 40 -21 211 -71 218 -64 9 9 -3 14 -97 39 -52 14 -101
32 -110 39 -9 8 -33 17 -53 21 -22 4 -38 13 -38 21 0 7 -15 17 -32 20 -103 23
-203 106 -259 217 -16 31 -33 60 -39 63 -22 14 -70 89 -70 110 0 27 -44 69
-95 91 -71 29 -269 156 -302 193 -18 20 -61 77 -95 126 -34 50 -71 98 -83 107
-28 24 -125 75 -175 93 -37 13 -41 13 -36 0z"/>
<path d="M5330 5340 c-137 -36 -158 -36 -235 -9 -57 20 -66 21 -185 9 -69 -6
-127 -13 -129 -16 -13 -12 18 -13 130 -3 122 11 125 11 198 -15 l74 -26 69 21
c81 24 208 49 248 49 17 0 47 -14 75 -36 26 -20 66 -41 89 -48 22 -7 58 -24
78 -38 21 -14 69 -33 107 -43 43 -10 89 -30 118 -51 53 -37 75 -36 28 2 -45
37 -83 55 -147 70 -32 8 -76 27 -98 43 -23 16 -56 33 -73 36 -18 4 -45 17 -62
30 -86 64 -119 67 -285 25z"/>
<path d="M3026 5304 c-124 -21 -316 -67 -316 -77 0 -4 17 -6 38 -3 37 6 37 5
-7 -9 -25 -8 -56 -26 -71 -40 -14 -13 -40 -28 -58 -31 -18 -4 -32 -12 -32 -19
0 -7 -7 -15 -15 -19 -26 -10 -16 -26 16 -26 17 0 28 -4 24 -10 -3 -5 -32 -10
-64 -10 -42 0 -64 -5 -80 -19 -12 -10 -42 -22 -67 -26 -25 -3 -48 -13 -51 -20
-2 -8 -13 -17 -24 -20 -10 -4 -19 -13 -19 -20 0 -16 -13 -20 -120 -33 l-75 -9
97 -2 97 -1 16 30 c14 28 20 30 68 30 40 -1 48 -3 35 -11 -10 -5 -18 -14 -18
-19 0 -12 13 -7 165 65 118 56 313 175 375 231 32 29 148 64 210 64 26 0 82
-7 125 -16 69 -14 98 -14 83 1 -10 10 -161 35 -206 34 -26 -1 -82 -7 -126 -15z"/>
<path d="M0 4670 c0 -4 39 -15 87 -24 48 -9 140 -39 203 -66 128 -54 180 -70
226 -70 17 0 46 -5 64 -12 32 -11 33 -12 11 -20 -17 -6 -300 -38 -338 -38 -2
0 -2 -4 1 -8 9 -14 436 34 436 49 0 11 -64 28 -165 45 -102 17 -118 22 -247
77 -95 40 -146 55 -250 70 -16 2 -28 1 -28 -3z"/>
<path d="M9785 4638 c-167 -11 -202 -26 -46 -20 120 5 254 -5 230 -18 -7 -4
-80 -20 -162 -35 -81 -15 -150 -32 -153 -37 -5 -7 5 -9 27 -5 51 9 325 21 318
13 -3 -3 -61 -10 -130 -16 -68 -5 -139 -12 -157 -16 -58 -9 -23 -24 61 -25
103 -1 70 -13 -63 -23 -107 -8 -142 -15 -135 -26 2 -4 26 -3 52 1 66 11 103
11 103 0 0 -5 -37 -12 -82 -16 -46 -4 -87 -10 -92 -12 -25 -15 37 -23 193 -23
96 0 172 -2 170 -4 -3 -4 -91 -18 -349 -56 l-45 -6 40 -12 c22 -6 72 -16 110
-23 82 -14 68 -27 -30 -28 -33 -1 -67 -6 -75 -11 -10 -7 27 -10 115 -10 177 0
197 16 65 51 l-45 13 45 7 c25 4 71 8 103 8 36 1 57 5 57 12 0 9 -29 10 -107
5 -59 -4 -105 -5 -102 -2 2 3 47 10 99 16 209 25 220 48 28 60 -68 4 -112 8
-98 9 32 2 54 16 47 28 -4 6 19 13 54 16 33 4 70 12 82 19 21 12 19 13 -20 18
-73 11 -57 17 59 24 138 8 188 16 188 27 0 5 -66 9 -147 10 l-148 1 70 20 c47
13 115 21 208 25 75 3 137 9 137 13 0 17 -38 20 -164 14 -115 -6 -134 -5 -148
10 -9 9 -18 15 -20 15 -2 -1 -66 -6 -143 -11z"/>
<path d="M2452 4434 c-52 -25 -92 -48 -89 -50 2 -3 38 7 79 20 76 26 247 60
256 51 6 -5 6 -6 -128 -45 -107 -31 -145 -50 -99 -50 13 0 79 13 147 29 67 16
122 25 122 22 0 -4 -60 -26 -132 -50 -125 -41 -157 -55 -147 -65 2 -2 56 11
119 30 63 18 151 40 195 49 44 9 91 18 105 21 62 13 -7 -18 -147 -66 -145 -50
-209 -79 -173 -79 8 -1 69 11 135 24 189 39 193 32 17 -35 -62 -24 -115 -48
-119 -53 -4 -6 20 -7 68 -3 84 8 83 1 -3 -34 -32 -12 -58 -26 -58 -31 0 -12
18 -11 79 2 73 15 97 7 43 -16 -47 -19 -51 -38 -9 -43 15 -2 25 -8 22 -13 -10
-15 12 -10 25 6 13 15 12 16 -30 28 -9 2 6 13 35 26 48 22 49 23 25 33 -14 5
-44 7 -67 3 -24 -3 -43 -4 -43 -2 0 2 27 14 60 26 83 30 78 45 -11 38 -39 -3
-70 -4 -67 -2 2 2 46 20 98 40 52 20 102 43 110 51 12 12 8 14 -35 14 -28 0
-70 -5 -95 -10 -89 -20 -96 -21 -80 -11 8 5 76 30 150 55 74 26 139 51 144 57
15 14 -78 11 -154 -6 -36 -7 -66 -12 -68 -10 -2 1 17 11 42 20 56 21 60 36 9
29 -42 -6 -176 -32 -208 -41 -11 -3 -17 -3 -14 1 4 4 58 20 120 37 63 17 119
35 124 40 14 14 -162 -2 -280 -25 -27 -5 -25 -4 10 14 22 11 33 20 25 20 -8 0
-57 -21 -108 -46z"/>
<path d="M1015 4369 c-16 -5 -95 -22 -173 -39 -79 -16 -149 -33 -155 -39 -7
-5 -111 -39 -232 -76 -121 -37 -224 -71 -229 -76 -20 -18 2 -18 50 0 49 19
244 65 319 75 41 6 -9 -10 -190 -60 -99 -28 -225 -82 -225 -97 0 -5 8 -6 18
-2 28 11 294 66 299 61 2 -2 -20 -12 -49 -21 -50 -16 -248 -95 -257 -102 -2
-2 -2 -5 1 -8 3 -3 39 3 79 14 86 24 239 54 245 48 2 -2 -34 -18 -80 -36 -112
-42 -219 -91 -213 -97 2 -3 38 8 78 24 108 43 287 89 269 69 -3 -4 -53 -26
-110 -50 -119 -49 -204 -99 -178 -105 9 -2 63 12 120 31 191 63 214 62 43 -2
-106 -40 -145 -61 -114 -61 8 0 63 16 124 35 121 39 166 42 64 5 -101 -37
-217 -98 -229 -120 -10 -19 -9 -20 17 -14 15 4 43 14 62 21 42 18 254 74 259
69 2 -2 -30 -16 -70 -31 -149 -57 -162 -63 -166 -74 -3 -8 8 -7 33 3 50 21
146 46 140 37 -2 -5 -42 -32 -87 -62 -46 -29 -85 -54 -87 -56 -2 -2 -2 -6 2
-9 3 -3 29 1 59 9 29 9 109 27 178 42 143 30 155 34 148 40 -3 3 -70 -8 -148
-25 -79 -17 -148 -29 -154 -27 -19 6 109 75 182 97 39 12 72 26 72 31 0 4 -6
7 -12 4 -28 -9 -98 -14 -98 -7 0 4 19 16 43 26 40 18 41 20 16 23 -15 2 -85
-10 -157 -26 -71 -17 -133 -31 -138 -31 -25 2 80 46 231 97 172 58 191 75 55
49 -41 -8 -77 -13 -78 -11 -5 4 130 45 147 45 6 0 11 5 11 11 0 15 -71 6 -176
-22 -91 -24 -126 -32 -104 -23 8 4 22 14 30 24 8 10 86 39 173 66 86 26 157
51 157 56 0 9 -20 6 -188 -29 -68 -14 -125 -23 -128 -21 -7 8 227 77 345 102
62 13 116 27 119 31 11 12 -95 -4 -198 -30 -145 -36 -400 -87 -418 -83 -21 5
259 98 393 131 55 14 144 33 198 42 53 10 97 21 97 26 0 5 -4 9 -8 9 -15 0
-395 -78 -554 -114 -152 -35 -197 -42 -186 -30 19 18 529 150 677 175 107 17
130 24 120 33 -2 2 -96 -12 -209 -30 -303 -49 -311 -49 -205 -14 50 16 149 41
220 55 117 24 157 37 144 48 -2 2 -17 0 -34 -4z"/>
<path d="M7705 4164 c-60 -7 -198 -17 -305 -23 -235 -13 -402 -30 -415 -42
-12 -12 -9 -12 121 5 157 21 298 30 331 21 22 -6 -10 -16 -162 -52 -272 -63
-268 -74 20 -53 184 14 619 58 670 69 72 16 -7 12 -195 -8 -162 -18 -350 -35
-510 -46 -95 -6 -53 9 141 49 202 42 321 63 417 72 79 7 110 25 40 23 -24 -1
-92 -8 -153 -15z"/>
<path d="M7065 2385 c-33 -7 -85 -23 -115 -35 -131 -53 -356 -120 -381 -115
-15 4 -50 -2 -82 -13 -31 -11 -75 -23 -99 -27 -40 -6 -71 -14 -203 -50 -27 -8
-72 -16 -100 -19 -27 -2 -72 -14 -98 -25 -27 -12 -69 -21 -94 -21 -36 0 -54
-7 -86 -32 -28 -22 -57 -35 -94 -40 -161 -24 -212 -36 -242 -59 -13 -11 -34
-19 -46 -19 -54 0 -85 -13 -91 -36 -8 -29 -12 -30 -40 -3 -21 20 -24 20 -46 5
-12 -9 -37 -16 -55 -16 -17 0 -35 -5 -38 -11 -5 -7 -14 -4 -26 7 -18 16 -19
16 -30 -14 -6 -18 -15 -29 -20 -26 -6 3 -16 1 -23 -6 -8 -6 -26 -8 -40 -4 -16
4 -26 2 -26 -5 0 -6 -10 -11 -23 -11 -13 0 -29 -6 -36 -12 -11 -11 -14 -10
-18 0 -4 10 -11 8 -29 -9 -13 -12 -24 -17 -24 -11 0 7 -4 12 -10 12 -5 0 -10
-6 -10 -14 0 -24 -26 -39 -48 -27 -17 9 -23 6 -37 -15 -9 -15 -22 -23 -30 -20
-8 3 -23 -6 -35 -21 -17 -21 -22 -24 -35 -13 -13 11 -18 10 -31 -9 -12 -16
-19 -19 -28 -12 -10 8 -16 4 -25 -16 l-13 -28 -13 25 c-16 30 -28 29 -35 -1
-8 -34 -27 -34 -35 0 -4 17 -11 34 -16 37 -14 8 -26 -5 -14 -14 6 -4 15 -20
20 -37 12 -36 41 -45 50 -16 5 17 9 19 25 8 15 -9 22 -9 32 1 6 6 20 12 30 12
9 0 22 9 28 21 10 17 14 18 27 8 13 -11 18 -9 35 14 11 15 24 24 29 21 6 -3
22 2 37 12 15 10 31 17 35 16 4 -1 27 9 51 23 23 14 52 25 64 25 11 0 24 5 27
10 3 6 17 10 30 10 13 0 27 5 30 10 4 7 11 7 18 2 17 -13 80 10 92 34 8 15 21
19 67 19 38 0 62 6 75 17 16 14 20 15 37 2 27 -20 49 -18 64 6 7 12 23 20 40
20 15 0 53 12 83 26 29 14 64 31 76 36 12 6 32 8 44 5 12 -3 38 1 57 9 19 7
50 14 68 14 45 0 112 28 125 51 6 13 21 19 43 19 18 0 66 11 106 25 40 14 87
25 104 25 17 0 47 5 66 11 43 13 132 35 220 54 36 7 82 21 102 29 21 9 57 16
80 15 44 -2 196 42 388 112 58 21 128 44 155 52 63 19 39 20 -40 2z"/>
<path d="M6605 1880 c-16 -11 -44 -20 -62 -20 -17 0 -52 -9 -78 -20 -56 -24
-55 -24 -55 -6 0 20 -37 9 -55 -16 -7 -11 -18 -17 -24 -14 -6 4 -20 -3 -31
-14 -20 -20 -23 -21 -40 -5 -18 16 -20 15 -44 -24 -28 -44 -46 -53 -46 -22 0
11 -4 23 -10 26 -5 3 -10 -1 -10 -9 0 -9 -7 -16 -15 -16 -9 0 -20 -10 -26 -23
-10 -23 -42 -29 -67 -13 -18 11 -43 -8 -58 -43 -17 -39 -10 -39 23 0 24 28 28
29 38 15 18 -23 41 -20 62 10 17 23 23 25 41 15 31 -16 35 -15 62 29 l25 40
13 -26 c11 -20 16 -23 27 -14 8 7 17 21 20 31 5 14 12 18 25 14 11 -3 28 -1
39 4 14 8 20 8 23 -1 3 -8 19 -1 44 20 21 18 40 28 42 22 5 -15 28 -12 42 5 7
8 24 15 39 15 15 0 31 4 37 10 5 5 36 18 69 29 l60 19 -40 1 c-25 1 -52 -7
-70 -19z"/>
<path d="M4323 1573 c-21 -38 -29 -41 -38 -13 -9 29 -17 25 -44 -25 -13 -24
-28 -42 -32 -39 -5 3 -18 22 -28 42 l-19 37 -20 -45 c-13 -30 -22 -40 -26 -30
-3 8 -11 29 -17 45 l-11 30 -10 -25 c-6 -14 -16 -38 -23 -55 l-13 -30 -7 28
c-8 32 -25 36 -25 6 0 -11 -5 -30 -11 -41 -11 -20 -12 -21 -25 -4 -11 16 -14
14 -32 -26 -15 -32 -21 -37 -21 -21 -1 27 -17 38 -25 18 -3 -8 -12 -15 -21
-15 -9 0 -18 -12 -21 -30 -9 -41 -20 -38 -29 8 l-8 37 -8 -31 c-5 -17 -18 -39
-29 -49 -22 -20 -20 -22 -44 55 -8 25 -14 36 -15 24 -1 -11 -7 -29 -15 -39
-13 -18 -15 -18 -34 14 l-20 33 -7 -31 c-8 -36 -23 -49 -31 -27 -8 20 -24 21
-24 2 0 -8 -10 -22 -22 -30 -28 -20 -15 -33 16 -17 13 8 29 10 35 7 6 -4 16 4
23 18 12 27 23 33 33 16 3 -5 17 -10 31 -10 19 0 28 -8 36 -31 l10 -30 30 28
30 28 18 -22 c15 -19 19 -20 24 -7 3 9 6 24 6 34 0 27 18 34 43 17 22 -14 24
-13 40 15 11 20 22 28 32 24 10 -4 20 3 27 19 12 27 24 32 30 13 7 -19 26 0
33 32 9 41 21 45 37 14 17 -36 30 -35 42 1 6 17 11 32 13 34 1 2 14 -10 28
-25 l25 -29 31 35 c28 33 31 34 44 17 13 -18 14 -17 31 10 10 15 19 30 21 32
2 2 12 -4 22 -13 22 -20 35 -15 52 17 12 22 12 22 -9 3 -21 -18 -22 -18 -41 5
l-19 24 -19 -32z"/>
<path d="M6364 1388 c-20 -39 -39 -55 -77 -63 -16 -4 -36 -19 -46 -35 -12 -21
-21 -26 -31 -19 -33 20 -61 4 -110 -63 -18 -24 -23 -25 -51 -15 -28 11 -33 10
-54 -17 -21 -26 -24 -27 -33 -10 -9 15 -12 14 -27 -16 l-17 -33 -18 23 -18 23
-6 -21 c-8 -25 -24 -29 -32 -7 -11 27 -22 16 -29 -27 -6 -34 -9 -38 -17 -23
-8 14 -12 15 -19 4 -8 -12 -10 -12 -18 0 -10 15 -14 10 -31 -42 -11 -35 -13
-37 -26 -20 -10 13 -13 14 -14 4 0 -8 -10 -25 -21 -37 -17 -18 -25 -21 -39
-12 -14 9 -16 17 -9 36 5 14 8 27 5 29 -9 9 -60 -79 -72 -125 -11 -40 -14 -44
-20 -24 -3 12 -10 22 -14 22 -4 0 -11 -10 -15 -22 -7 -20 -9 -19 -12 12 l-5
35 -23 -45 -23 -45 -7 48 c-10 62 -25 70 -25 13 0 -26 -6 -51 -15 -60 -8 -8
-15 -24 -15 -35 0 -12 -6 -21 -13 -21 -7 0 -18 -12 -24 -27 -10 -26 -11 -25
-12 21 -1 55 -12 53 -31 -7 -16 -51 -24 -40 -10 13 6 23 10 44 7 46 -2 2 -25
-26 -50 -64 -36 -51 -47 -76 -47 -105 0 -34 -2 -38 -20 -32 -16 5 -20 2 -20
-19 0 -37 -17 -41 -25 -6 -8 38 -25 29 -25 -13 -1 -18 -6 -42 -13 -54 l-13
-23 -19 33 c-15 25 -20 28 -23 14 -2 -9 10 -36 27 -59 32 -43 37 -41 43 17 2
24 7 30 25 28 14 -2 24 4 28 18 5 15 10 17 19 10 20 -17 26 -2 26 58 0 56 27
121 50 121 5 0 10 -22 10 -49 0 -28 4 -52 9 -55 10 -7 21 27 21 66 0 15 5 30
10 33 6 4 10 -6 10 -24 0 -16 4 -32 8 -35 11 -7 47 41 56 74 18 63 46 87 46
39 0 -30 18 -22 25 11 9 40 25 38 25 -2 1 -31 1 -32 15 -14 8 11 15 29 16 40
0 15 4 10 14 -14 l13 -35 11 28 c6 16 11 40 11 55 1 15 7 41 14 57 l13 30 7
-42 c8 -44 26 -59 26 -22 0 14 5 19 14 16 9 -4 21 5 31 19 11 18 22 23 36 19
20 -7 22 -3 34 50 l7 30 13 -30 13 -30 7 33 c6 24 11 30 18 23 19 -19 27 -12
33 29 5 33 9 38 21 29 10 -9 17 -9 25 -1 9 9 16 8 28 -3 15 -14 19 -13 35 5
10 11 24 20 31 20 7 0 23 15 35 33 12 17 24 34 25 36 2 2 15 -4 30 -13 25 -17
27 -17 50 5 13 12 24 31 24 41 0 11 7 18 19 18 10 0 21 7 25 15 4 12 10 13 31
3 23 -10 29 -9 48 14 12 15 41 36 63 47 29 14 48 33 61 61 24 47 11 55 -13 8z"/>
<path d="M3158 1333 l-3 -58 -32 2 c-28 3 -33 -1 -44 -32 l-13 -35 -20 31
c-17 27 -20 29 -29 14 -8 -16 -12 -13 -24 16 l-15 34 -23 -52 c-13 -29 -27
-53 -31 -53 -4 0 -4 20 0 46 8 59 -7 49 -33 -22 -25 -65 -26 -76 -5 -49 15 20
16 20 29 1 14 -18 15 -17 26 10 6 16 17 43 24 59 l13 30 11 -44 c11 -40 13
-42 27 -25 13 18 15 18 28 2 20 -27 34 -22 44 15 8 29 12 32 40 29 27 -3 34 1
43 25 l11 28 12 -32 c6 -17 14 -34 17 -38 4 -3 21 18 40 47 l33 53 10 -42 c15
-55 24 -63 32 -24 7 34 19 47 29 31 11 -18 35 -10 47 16 l12 25 17 -23 17 -22
13 29 c7 17 15 32 16 35 2 2 15 -9 28 -25 13 -17 24 -25 25 -20 0 6 -11 24
-25 40 l-25 30 -18 -23 c-17 -21 -20 -22 -32 -8 -11 15 -15 13 -31 -14 -20
-33 -36 -38 -45 -15 -9 22 -22 18 -30 -7 -6 -21 -8 -20 -18 14 l-11 37 -35
-49 c-19 -27 -38 -50 -41 -50 -4 0 -17 27 -29 60 -12 33 -24 60 -26 60 -2 0
-4 -26 -6 -57z"/>
<path d="M2662 1167 c-7 -16 -12 -40 -12 -53 0 -80 -51 -75 -70 6 -14 60 -30
74 -30 28 0 -18 -8 -50 -18 -71 l-17 -39 -36 25 -37 25 -16 -42 c-14 -35 -18
-38 -27 -23 -14 25 -29 21 -29 -7 0 -36 -18 -41 -32 -11 -11 24 -13 25 -24 10
-11 -14 -15 -11 -35 24 -28 50 -34 47 -15 -6 13 -37 13 -45 -2 -75 -9 -18 -21
-33 -27 -33 -5 0 -19 26 -30 57 -25 69 -40 87 -31 36 8 -43 0 -47 -38 -17
l-26 20 0 -50 c0 -59 -13 -72 -30 -31 -16 39 -26 38 -34 -5 -9 -46 -20 -44
-36 8 l-13 42 -9 -38 c-4 -21 -15 -51 -24 -68 -8 -17 -13 -33 -10 -36 3 -3 13
11 22 31 21 43 27 44 43 9 l13 -28 17 33 c17 33 17 33 35 13 26 -28 36 -18 36
35 0 24 5 44 10 44 26 0 70 -32 91 -67 l23 -37 19 47 c18 43 37 62 37 37 0 -5
5 -10 10 -10 6 0 10 9 10 21 0 21 0 21 18 -1 19 -23 19 -23 33 -3 8 11 23 22
34 24 12 3 23 17 29 37 10 37 21 40 36 12 11 -20 60 -29 60 -11 0 5 7 26 16
47 l16 38 14 -39 c12 -37 37 -65 56 -65 4 0 10 12 14 28 3 15 10 38 14 52 l8
25 1 -27 c1 -16 5 -28 10 -28 10 0 45 89 38 96 -3 3 -8 -4 -12 -15 -10 -33
-23 -25 -27 17 l-4 37 -12 -28z"/>
<path d="M4996 1155 c-39 -29 -48 -33 -53 -19 -5 13 -10 11 -29 -13 -20 -25
-23 -26 -30 -10 -6 16 -10 14 -35 -15 -15 -18 -28 -27 -29 -19 0 7 -6 11 -15
7 -9 -3 -15 0 -15 9 0 8 -7 15 -15 15 -8 0 -15 7 -15 16 0 28 -55 -14 -78 -60
-16 -32 -21 -36 -21 -18 -1 25 -13 28 -31 7 -7 -8 -16 -13 -19 -10 -4 2 -16
-12 -25 -33 l-18 -37 -15 29 c-15 28 -16 29 -29 11 -7 -10 -15 -23 -18 -29 -2
-6 -11 -1 -21 12 -22 30 -35 28 -35 -8 0 -16 -4 -30 -10 -30 -5 0 -10 -11 -10
-24 0 -32 -16 -41 -30 -19 -7 11 -13 14 -16 7 -3 -6 -11 -20 -19 -30 -13 -17
-14 -18 -15 -1 0 23 -25 22 -49 -2 -16 -16 -21 -17 -25 -5 -3 8 -12 11 -22 7
-14 -5 -15 -1 -9 28 7 34 7 34 -13 14 -17 -17 -19 -29 -15 -77 6 -63 20 -76
30 -28 6 35 23 40 23 8 l0 -21 25 23 c20 19 27 21 39 11 13 -11 18 -7 34 19
12 19 23 27 26 21 15 -23 35 -9 59 39 24 48 25 49 42 30 21 -23 38 -16 30 11
-11 34 10 20 26 -19 l17 -37 7 33 c5 21 13 31 23 30 9 -2 20 10 27 32 13 36
13 36 31 -17 5 -17 6 -17 20 1 8 11 14 32 14 48 0 15 10 36 23 48 l22 21 3
-41 c3 -35 6 -39 18 -30 7 7 28 10 45 8 24 -4 34 0 47 20 14 22 17 23 28 7 11
-15 13 -14 27 5 11 15 21 20 35 16 15 -5 26 1 43 25 19 27 24 30 32 17 8 -12
16 -13 39 -4 33 12 34 17 9 40 -17 16 -21 15 -65 -19z"/>
<path d="M6735 1122 c-11 -2 -58 -28 -105 -57 -47 -29 -134 -84 -195 -122 -91
-56 -133 -92 -248 -209 -153 -156 -148 -143 -65 -193 41 -24 181 -62 320 -86
51 -9 113 -28 142 -42 45 -23 68 -28 186 -34 74 -3 163 -12 198 -19 48 -9 83
-10 150 -1 152 20 191 29 224 54 38 29 268 147 286 147 18 0 122 53 122 62 0
18 -46 97 -112 195 -55 81 -84 113 -137 152 -111 80 -135 89 -288 106 -76 8
-196 22 -268 30 -176 21 -187 22 -210 17z m100 -22 c39 -5 171 -21 295 -35
l225 -26 65 -41 c131 -84 199 -156 259 -276 24 -46 22 -83 -2 -63 -10 8 -17 7
-25 -1 -9 -9 -12 -9 -12 0 0 7 -4 12 -10 12 -5 0 -7 -6 -4 -14 10 -27 -15 -26
-30 1 l-15 28 -1 -27 c0 -16 -4 -28 -10 -28 -5 0 -10 5 -10 12 0 9 -3 9 -12 0
-9 -9 -14 -7 -24 6 -13 16 -13 16 -14 0 0 -21 -11 -23 -28 -6 -9 9 -12 8 -12
-6 0 -9 -5 -14 -10 -11 -6 3 -13 -1 -16 -10 -5 -12 -9 -13 -20 -4 -10 8 -14 8
-14 0 0 -6 -6 -11 -12 -11 -33 -1 -40 -16 -24 -48 24 -46 20 -46 -26 5 -24 25
-91 94 -150 153 -104 103 -111 108 -205 145 -54 22 -113 53 -131 69 -49 45
-122 145 -122 167 0 22 0 22 95 9z"/>
<path d="M1617 936 c-4 -10 -7 -40 -7 -66 0 -50 -33 -154 -52 -166 -6 -4 -17
1 -23 10 -11 15 -14 13 -26 -16 l-12 -33 -6 40 -6 40 -24 -42 c-24 -42 -25
-43 -43 -23 -10 10 -18 26 -18 35 0 26 -17 8 -25 -27 -7 -32 -7 -32 -14 -8 -4
14 -4 43 0 65 18 91 1 81 -21 -12 -6 -29 -16 -53 -21 -53 -5 0 -9 28 -10 63
l-1 62 -15 -35 c-9 -19 -28 -64 -42 -98 -29 -70 -44 -82 -49 -39 -4 31 -22 37
-22 7 0 -11 -5 -20 -10 -20 -6 0 -10 17 -8 40 3 56 -5 57 -33 5 l-24 -45 -11
42 -10 43 -19 -52 c-10 -29 -23 -53 -27 -53 -4 0 -8 23 -8 50 0 28 -4 50 -10
50 -5 0 -10 -10 -10 -22 0 -28 -31 -118 -41 -118 -7 0 -19 76 -19 121 0 16 -5
29 -11 29 -8 0 -10 -17 -6 -57 8 -70 25 -133 36 -133 5 0 14 21 21 46 l13 46
18 -33 17 -34 20 45 19 45 7 -33 c9 -40 28 -37 41 6 11 38 23 42 23 7 0 -32 9
-42 24 -27 8 8 14 7 23 -5 18 -24 31 -10 61 70 l28 72 9 -35 c16 -63 16 -63
30 -53 20 16 87 14 93 -2 9 -22 19 -18 34 10 15 27 30 33 30 11 0 -7 6 -19 14
-26 12 -9 16 -5 22 25 5 26 10 33 17 26 20 -20 28 -12 65 67 l37 77 3 -57 c2
-32 7 -58 12 -58 4 0 16 23 25 50 9 28 18 50 21 50 2 0 10 -15 18 -32 14 -32
15 -33 22 -9 l7 24 17 -23 17 -23 13 37 c10 30 14 35 26 25 11 -9 17 -5 29 22
l14 34 1 -30 c1 -29 2 -29 12 -7 8 16 8 33 -2 65 l-13 42 -9 -40 c-14 -68 -18
-73 -33 -45 -13 24 -14 24 -20 5 -4 -11 -11 -29 -15 -40 -9 -19 -9 -19 -16 3
-8 27 -13 27 -30 5 -12 -16 -13 -15 -14 12 -1 57 -17 60 -30 6 -6 -28 -16 -53
-20 -56 -10 -6 -30 57 -31 100 0 17 -4 39 -8 49 -7 18 -8 18 -14 2z"/>
<path d="M4022 874 c-13 -9 -37 -41 -55 -72 -32 -57 -32 -57 -35 -25 -2 17 4
46 13 63 26 51 9 46 -24 -6 -17 -27 -32 -53 -34 -59 -2 -6 -10 -5 -20 3 -20
17 -35 8 -48 -26 l-11 -27 -14 28 c-18 34 -31 28 -40 -18 -8 -46 -24 -45 -25
3 l-1 37 -14 -42 c-17 -46 -59 -97 -73 -88 -5 3 -15 30 -22 60 -7 30 -15 55
-19 55 -3 0 -22 -28 -41 -62 -28 -51 -39 -63 -59 -63 -14 0 -31 -4 -39 -9 -11
-7 -12 1 -6 43 4 31 3 51 -3 51 -5 0 -12 -18 -15 -39 -3 -22 -21 -72 -41 -111
-21 -40 -35 -77 -33 -83 2 -6 17 18 34 53 31 66 34 66 49 5 7 -30 7 -30 18 15
9 39 11 41 14 18 2 -16 6 -28 10 -28 4 0 21 25 38 56 l32 57 7 -32 c6 -29 23
-43 26 -21 1 6 3 15 4 20 1 6 4 22 5 38 2 22 4 18 14 -20 6 -25 14 -49 17 -52
3 -3 20 15 39 40 33 47 49 46 50 0 0 -33 17 -5 35 59 l18 60 13 -32 c8 -18 16
-33 19 -33 3 0 12 18 21 40 19 47 27 49 43 13 12 -26 14 -27 26 -9 13 17 15
16 31 -16 l17 -33 12 53 c7 30 20 61 29 70 15 15 16 14 16 -16 0 -18 5 -32 10
-32 6 0 10 14 10 30 0 41 16 38 24 -5 9 -48 22 -51 36 -10 11 32 13 34 24 19
10 -12 15 -14 20 -5 6 9 11 9 22 0 8 -6 16 -10 17 -8 13 20 37 83 33 87 -3 2
-11 -7 -17 -22 -12 -26 -29 -35 -29 -16 0 6 -6 10 -14 10 -8 0 -17 8 -20 17
-5 13 -12 6 -29 -28 -20 -40 -22 -42 -25 -19 -2 14 -8 30 -13 36 -5 6 -7 19
-3 28 8 20 4 20 -24 0z"/>
<path d="M617 594 c-4 -4 -7 -19 -7 -34 0 -32 -19 -90 -29 -90 -4 0 -12 5 -18
11 -8 8 -14 5 -23 -12 -11 -20 -13 -20 -22 -6 -5 10 -18 17 -28 17 -15 0 -20
7 -20 24 0 14 -4 28 -10 31 -6 4 -10 -10 -10 -34 0 -22 -5 -52 -10 -68 -10
-27 -9 -27 6 -8 8 11 20 19 26 17 6 -2 15 3 19 10 6 10 13 7 25 -11 l17 -24
12 29 12 29 12 -22 c17 -33 29 -28 42 17 7 22 15 40 18 40 4 0 12 -13 18 -30
15 -40 26 -38 48 12 18 42 18 42 29 18 14 -34 14 -34 31 -20 12 10 18 10 30 0
18 -15 33 -6 47 28 9 22 12 24 15 10 6 -24 20 -23 33 3 9 16 9 20 -4 17 -8 -2
-22 6 -30 17 -15 20 -15 20 -16 -1 0 -11 -6 -29 -14 -40 -15 -19 -15 -19 -29
1 -12 16 -18 17 -30 7 -13 -11 -17 -8 -24 15 l-10 28 -21 -42 c-12 -23 -26
-44 -31 -48 -6 -3 -18 22 -28 55 -10 34 -21 58 -26 54z"/>
<path d="M4906 573 c-2 -10 -10 -44 -17 -76 -7 -31 -15 -55 -18 -52 -8 9 -1
86 10 107 5 10 6 18 1 18 -15 0 -61 -102 -72 -159 -6 -30 -11 -55 -13 -56 -6
-5 -46 -25 -50 -25 -3 0 -8 12 -12 28 -8 26 -8 25 -20 -18 -10 -42 -12 -43
-23 -24 -6 12 -14 40 -18 63 -9 53 -16 45 -29 -32 -6 -34 -15 -61 -20 -61 -6
1 -20 5 -32 9 -20 6 -23 3 -23 -25 0 -38 -16 -31 -25 10 -8 36 -25 40 -25 5 0
-14 4 -25 8 -25 4 0 16 -15 27 -32 l19 -33 8 33 c8 29 11 31 30 21 26 -14 38
2 38 54 0 20 4 37 8 37 5 0 19 -23 31 -50 23 -50 48 -59 37 -14 -6 22 -4 24
17 19 41 -11 67 21 77 94 11 82 25 97 34 37 7 -46 26 -74 26 -37 0 11 5 43 12
71 l12 52 11 -38 c14 -52 47 -59 69 -15 9 16 16 37 16 46 0 8 5 15 10 15 18 0
11 39 -9 50 -27 14 -28 14 -23 -20 6 -41 -5 -80 -23 -80 -23 0 -34 32 -28 78
6 42 -10 61 -21 25z"/>
<path d="M2825 453 c-6 -10 -9 -47 -9 -83 3 -96 3 -98 19 -70 7 14 17 23 22
20 4 -3 9 11 11 30 4 37 22 68 22 37 0 -23 28 -77 39 -77 5 0 12 17 16 38 l8
37 12 -29 12 -28 24 38 24 39 5 -30 c4 -17 12 -29 19 -27 7 1 19 -2 27 -9 10
-8 21 -6 44 11 l31 22 6 -21 c9 -36 22 -23 16 17 -8 50 -11 52 -35 19 -23 -32
-35 -33 -67 -7 -17 14 -22 27 -19 45 7 34 -1 32 -40 -12 -34 -39 -35 -38 -15
30 6 21 6 22 -14 4 -11 -10 -28 -38 -38 -64 -19 -50 -35 -44 -35 15 0 25 -4
32 -20 32 -13 0 -20 -7 -20 -19 0 -11 -4 -23 -10 -26 -9 -6 -16 15 -22 63 -3
21 -4 21 -13 5z"/>
</g>
</svg>
