<?xml version="1.0" standalone="no"?>
<!DOCTYPE svg PUBLIC "-//W3C//DTD SVG 20010904//EN"
 "http://www.w3.org/TR/2001/REC-SVG-20010904/DTD/svg10.dtd">
<svg version="1.0" xmlns="http://www.w3.org/2000/svg"
 width="1920.000000pt" height="998.000000pt" viewBox="0 0 1920.000000 998.000000"
 preserveAspectRatio="xMidYMid meet">
<metadata>
Created by potrace 1.16, written by Peter Selinger 2001-2019
</metadata>
<g transform="translate(0.000000,998.000000) scale(0.100000,-0.100000)"
fill="#000000" stroke="none">
<path d="M129 7424 c-10 -12 -10 -20 -1 -35 13 -21 8 -78 -10 -112 -7 -14 -5
-24 11 -41 13 -14 19 -29 15 -39 -3 -10 -3 -25 2 -34 4 -10 8 -38 9 -63 1 -25
-1 -37 -4 -27 -6 18 -8 18 -21 2 -12 -15 -15 -14 -26 7 -13 22 -13 21 -14 -14
0 -31 3 -38 20 -38 11 0 20 -6 20 -14 0 -8 7 -22 16 -30 20 -20 10 -20 -20 0
-37 23 -42 -1 -11 -42 23 -30 27 -43 22 -81 -3 -27 -1 -40 4 -32 16 26 24 -3
25 -89 1 -48 4 -178 8 -290 7 -201 7 -203 -13 -192 -11 6 -38 8 -59 4 -28 -4
-41 -2 -51 10 -10 12 -18 13 -32 5 -19 -9 -19 -78 -19 -3144 l0 -3135 9600 0
9600 0 0 3444 0 3443 -25 -5 c-21 -3 -25 -10 -25 -37 0 -25 -5 -34 -21 -38
-18 -5 -19 -10 -13 -44 6 -34 6 -37 -9 -25 -14 12 -21 12 -47 1 -16 -8 -30
-17 -30 -21 0 -5 -6 -7 -12 -5 -7 1 -12 -4 -11 -10 2 -7 -7 -13 -18 -13 -18 0
-19 -3 -9 -15 7 -8 10 -25 6 -38 -3 -12 1 -35 9 -50 7 -15 10 -27 4 -27 -5 0
-9 -11 -9 -24 0 -22 -3 -23 -46 -19 -26 2 -79 15 -119 28 -72 25 -105 25 -105
0 0 -7 6 -18 14 -25 8 -6 13 -17 10 -25 -7 -17 -42 -26 -48 -11 -2 6 -5 3 -5
-6 -1 -12 -9 -18 -26 -18 -17 0 -23 -4 -19 -14 4 -11 0 -13 -15 -9 -12 3 -21
1 -21 -5 0 -6 -12 -4 -30 5 -39 19 -58 12 -62 -24 -2 -22 -9 -29 -30 -31 -24
-3 -28 -8 -28 -37 0 -19 4 -36 10 -40 5 -3 7 -12 3 -20 -3 -9 1 -15 10 -15 8
0 24 -15 35 -34 17 -29 19 -39 9 -59 -10 -22 -13 -23 -33 -11 -16 11 -28 12
-49 4 l-27 -10 21 -36 c12 -19 21 -44 21 -54 0 -16 -6 -18 -39 -15 -41 4 -57
-10 -52 -46 2 -19 -39 -33 -53 -19 -17 17 -56 -20 -56 -54 -1 -17 -7 -42 -14
-55 -8 -14 -11 -32 -8 -40 4 -11 -4 -9 -30 7 -39 24 -91 31 -70 10 20 -20 14
-37 -10 -30 -19 5 -21 2 -15 -27 6 -28 4 -34 -14 -38 -16 -5 -19 -11 -14 -30
4 -17 2 -24 -6 -21 -7 2 -31 -14 -54 -35 l-41 -39 19 -39 c10 -21 17 -47 15
-58 -3 -19 -5 -20 -30 -7 -15 8 -29 12 -31 9 -3 -2 -21 11 -40 30 l-34 35 -32
-20 c-17 -11 -31 -24 -31 -29 0 -5 -7 -9 -15 -9 -8 0 -15 5 -15 10 0 25 -33 6
-46 -27 -9 -20 -19 -32 -22 -26 -10 15 -68 23 -79 12 -7 -7 -11 3 -11 33 0 24
0 83 -1 131 0 49 1 92 2 95 1 4 -3 9 -8 12 -6 3 -14 -22 -19 -58 -7 -48 -13
-61 -25 -60 -11 2 -16 -6 -17 -27 -1 -16 -4 -37 -7 -45 -3 -8 -8 -32 -12 -52
-4 -28 -9 -36 -21 -31 -9 3 -20 0 -24 -7 -6 -10 -14 -7 -32 13 l-25 26 -37
-26 c-30 -20 -40 -23 -47 -12 -6 11 -9 10 -15 -4 -7 -20 -24 -23 -24 -3 0 22
-28 40 -42 28 -19 -15 -90 -32 -102 -24 -28 17 -80 11 -104 -13 -21 -21 -26
-22 -38 -10 -15 15 -44 10 -44 -7 0 -5 -9 -6 -21 -3 -24 8 -82 -28 -98 -60 -5
-11 -10 -14 -10 -7 -1 19 -29 14 -41 -8 -9 -16 -15 -18 -30 -10 -26 14 -40 13
-40 -3 0 -8 -13 -25 -28 -39 -23 -20 -33 -23 -47 -15 -13 7 -24 6 -38 -2 -14
-9 -22 -10 -30 -2 -20 20 -47 11 -79 -24 -41 -47 -65 -60 -84 -44 -10 8 -18 8
-27 1 -19 -16 -54 -4 -60 20 -5 16 -11 19 -29 13 -13 -4 -32 -8 -43 -8 -11 -1
-25 -6 -32 -10 -6 -4 -14 -3 -18 3 -4 6 -13 7 -23 2 -24 -11 -89 -7 -106 7
-11 9 -22 7 -52 -10 -21 -11 -43 -28 -49 -36 -9 -12 -14 -12 -40 1 -38 20 -69
20 -100 0 -14 -9 -25 -12 -25 -7 0 4 -15 17 -34 27 -32 17 -36 17 -51 2 -22
-22 -29 -20 -58 13 -14 17 -28 27 -31 24 -4 -4 -14 3 -22 16 -15 21 -17 21
-35 5 -10 -9 -19 -13 -19 -9 0 5 -5 4 -11 -2 -9 -9 -19 -6 -41 10 -28 21 -30
21 -42 5 -7 -10 -15 -15 -18 -13 -10 10 -108 13 -114 4 -3 -6 -14 -7 -25 -4
-14 5 -21 0 -28 -16 l-8 -23 -18 28 c-13 19 -21 24 -28 17 -16 -16 -47 -13
-47 3 0 7 -7 19 -15 26 -8 7 -15 21 -15 32 0 11 -8 22 -19 25 -10 2 -28 18
-40 34 -12 16 -30 29 -41 29 -10 0 -25 8 -32 18 -7 10 -30 28 -51 41 l-38 23
-30 -28 c-21 -20 -32 -25 -40 -17 -8 8 -7 13 1 18 13 8 -36 65 -56 65 -7 0
-16 9 -19 20 -3 11 -11 20 -16 20 -5 0 -9 7 -9 15 0 8 -4 15 -9 15 -5 0 -18
15 -29 32 -19 29 -22 31 -27 13 -4 -11 -11 -29 -15 -40 -5 -11 -12 -35 -15
-52 -4 -18 -15 -39 -25 -46 -27 -18 -35 -60 -16 -76 22 -18 20 -31 -3 -31 -27
0 -34 -15 -21 -41 19 -34 4 -34 -39 0 l-39 31 -21 -29 c-12 -16 -21 -34 -21
-40 0 -5 -11 -22 -25 -37 -16 -17 -23 -34 -19 -46 8 -25 -27 -24 -51 2 -10 11
-24 20 -31 20 -7 0 -29 9 -49 20 -31 17 -36 18 -41 5 -5 -13 -9 -13 -21 -3
-13 10 -19 8 -33 -10 -10 -12 -21 -28 -24 -35 -3 -8 -8 -7 -16 6 -12 18 -40
24 -40 7 0 -5 -7 -7 -15 -4 -8 4 -21 1 -29 -5 -17 -14 -46 -4 -68 22 -13 17
-19 19 -31 9 -8 -7 -22 -10 -31 -6 -9 3 -16 1 -16 -5 0 -6 -9 -11 -20 -11 -15
0 -22 -9 -27 -31 -5 -25 -9 -30 -27 -25 -56 17 -76 18 -76 6 0 -7 -6 -10 -14
-7 -18 7 -36 -12 -36 -37 -1 -18 -3 -18 -15 6 -27 48 -74 46 -75 -4 0 -12 -6
-15 -22 -11 -13 3 -29 10 -35 16 -9 6 -18 0 -30 -21 -14 -25 -23 -30 -40 -25
-16 3 -23 1 -23 -10 0 -21 -29 -30 -36 -12 -11 28 -74 6 -74 -26 -1 -10 -4 -9
-11 4 -12 20 -35 23 -42 5 -3 -9 -11 -7 -26 7 l-23 20 -19 -24 c-11 -13 -22
-21 -26 -18 -3 4 -12 2 -19 -4 -16 -13 -34 -3 -34 18 0 32 -50 103 -72 103
-24 0 -128 -85 -128 -104 0 -7 -11 -23 -25 -36 -14 -13 -25 -31 -25 -41 0 -25
-33 -29 -60 -7 -13 10 -26 15 -29 10 -3 -5 -32 -9 -63 -7 -51 1 -60 -1 -73
-22 -11 -16 -22 -22 -34 -18 -10 3 -31 -1 -46 -9 -24 -13 -32 -13 -55 -1 -19
10 -30 11 -38 3 -7 -7 -12 -4 -17 11 -3 12 -13 21 -20 21 -8 0 -30 9 -49 20
-21 11 -38 15 -41 10 -10 -16 -41 -11 -59 8 -22 26 -86 28 -86 4 0 -26 -43
-22 -74 7 -14 14 -42 26 -61 28 -32 3 -35 1 -35 -23 0 -16 -5 -24 -12 -21 -7
2 -22 -4 -34 -14 -20 -19 -21 -19 -56 5 l-36 24 -21 -22 c-12 -12 -21 -29 -21
-37 -1 -9 -8 -5 -21 10 -17 21 -23 23 -40 13 -27 -17 -36 -15 -43 11 l-6 22
-19 -23 c-11 -12 -24 -22 -29 -22 -5 0 -13 -7 -16 -16 -6 -15 -8 -15 -26 1
-19 17 -21 17 -39 1 -18 -16 -61 -24 -91 -15 -10 3 -16 -5 -18 -24 -3 -21 -7
-26 -16 -18 -15 12 -68 10 -78 -3 -4 -6 -13 -5 -22 3 -20 17 -32 8 -40 -29 -3
-19 -10 -29 -17 -25 -5 4 -16 -1 -24 -11 -13 -18 -14 -18 -35 9 -12 15 -26 27
-33 27 -6 0 -21 9 -33 21 -28 26 -38 20 -64 -38 -13 -31 -24 -43 -34 -40 -16
6 -26 -12 -26 -46 -1 -20 -2 -20 -11 -4 -13 21 -35 22 -47 1 -7 -12 -11 -13
-17 -5 -5 9 -10 9 -20 1 -18 -15 -39 13 -27 37 10 20 -6 69 -23 68 -27 -3 -85
-36 -85 -49 0 -22 -22 -20 -48 4 -26 25 -51 26 -68 3 -9 -12 -13 -14 -14 -5 0
7 -5 10 -11 6 -18 -11 -29 17 -29 79 0 58 19 137 32 137 5 0 8 7 8 15 0 17
-30 35 -59 35 -12 0 -29 9 -38 20 -10 11 -24 20 -32 20 -25 0 -105 33 -114 47
-5 8 -27 13 -55 13 -27 0 -52 4 -58 10 -6 6 -21 6 -41 1 -22 -6 -43 -5 -70 4
-50 18 -63 18 -82 0 -50 -49 -87 -75 -115 -80 -53 -11 -86 -29 -86 -47 0 -25
-17 -31 -42 -14 -28 20 -54 20 -61 2 -3 -8 -14 -12 -25 -9 -14 3 -22 -3 -32
-26 -10 -25 -15 -29 -26 -20 -8 6 -14 19 -14 29 0 26 -25 44 -38 27 -13 -15
-55 -15 -75 1 -11 9 -20 5 -42 -18 -30 -31 -61 -33 -78 -4 -12 21 -34 17 -40
-6 -4 -17 -11 -19 -31 -14 -18 4 -28 2 -32 -9 -3 -9 -12 -13 -19 -11 -7 3 -16
1 -20 -5 -3 -6 -17 -8 -30 -5 -17 4 -26 0 -34 -15 -7 -13 -20 -20 -33 -18 -16
1 -23 -5 -28 -23 l-6 -25 -17 33 c-18 34 -35 40 -55 20 -9 -9 -16 -7 -31 6
-19 17 -20 17 -34 -10 l-14 -27 -32 33 c-29 31 -32 32 -50 16 -10 -9 -25 -14
-34 -11 -10 4 -17 -1 -22 -14 -5 -16 -13 -20 -35 -17 -22 2 -33 -3 -49 -25
-27 -37 -45 -37 -68 1 -18 32 -28 37 -38 19 -5 -7 -13 -5 -24 5 -10 9 -21 13
-25 9 -4 -4 -18 5 -31 20 l-25 26 -25 -23 c-14 -13 -25 -28 -25 -35 0 -6 -4
-11 -10 -11 -5 0 -19 -9 -31 -21 -12 -12 -31 -19 -47 -18 -51 4 -72 -1 -72
-17 0 -8 -4 -12 -10 -9 -5 3 -10 2 -10 -4 0 -6 -11 -6 -32 0 -18 5 -41 6 -51
3 -11 -4 -24 1 -33 13 -14 16 -16 17 -26 2 -11 -15 -13 -15 -27 3 -14 16 -21
18 -44 9 -15 -6 -30 -18 -33 -26 -8 -21 -21 -19 -27 4 -7 29 -74 34 -94 7 -10
-15 -17 -17 -20 -8 -3 6 -15 12 -28 12 -13 0 -32 12 -45 28 -34 42 -66 32 -92
-27 -10 -25 -21 -48 -24 -50 -2 -3 -18 9 -35 25 -30 28 -31 28 -45 10 -8 -11
-14 -28 -14 -38 0 -11 -5 -15 -14 -12 -8 3 -17 -3 -20 -14 -4 -11 -21 -26 -39
-33 -18 -7 -44 -21 -59 -31 -21 -15 -32 -17 -47 -9 -14 8 -21 8 -25 -2 -3 -8
-8 -7 -16 5 -28 44 -39 48 -64 24 -14 -12 -28 -35 -32 -51 -6 -25 -8 -26 -19
-12 -16 22 -31 21 -44 0 -9 -17 -10 -17 -29 0 -14 13 -22 15 -27 7 -4 -6 -13
-9 -20 -6 -8 3 -39 -20 -71 -49 -31 -30 -61 -52 -65 -49 -5 3 -9 -1 -9 -8 0
-7 -10 -1 -21 15 -24 31 -37 34 -55 10 -12 -17 -15 -16 -43 11 -27 26 -31 27
-45 13 -9 -9 -16 -20 -16 -24 0 -5 -16 -9 -35 -10 -27 -1 -35 3 -35 17 0 23
-22 41 -39 31 -7 -5 -22 -6 -32 -4 -10 3 -19 0 -19 -6 0 -6 -4 -11 -10 -11 -5
0 -10 6 -10 14 0 27 -18 27 -43 1 -21 -23 -25 -24 -37 -11 -7 9 -19 16 -26 16
-8 0 -14 5 -14 10 0 6 7 10 15 10 18 0 20 30 2 54 -17 24 -43 11 -63 -30 -13
-27 -20 -33 -39 -28 -17 4 -24 0 -28 -17 -5 -20 -7 -20 -22 -5 -21 21 -42 20
-49 -1 -11 -35 -53 -24 -95 23 -35 40 -41 43 -54 29 -19 -18 -27 -19 -27 -2 0
8 -11 24 -24 36 -17 16 -30 20 -49 15 -23 -5 -29 -1 -48 30 -22 38 -36 45 -45
22 -3 -8 -12 -12 -19 -10 -7 3 -16 0 -20 -6 -8 -13 -43 -4 -67 17 -13 12 -20
12 -36 2 -16 -10 -23 -10 -35 0 -13 10 -17 9 -26 -6 -11 -17 -12 -17 -26 2
-15 18 -16 18 -44 2 -31 -18 -61 -14 -61 8 0 8 -13 23 -29 34 l-29 21 -24 -28
c-33 -39 -46 -46 -65 -31 -13 11 -17 10 -28 -4 -12 -16 -13 -16 -27 5 -7 13
-19 36 -26 51 -23 54 -91 52 -77 -2 22 -96 5 -145 -41 -114 -15 9 -24 11 -29
4 -3 -6 -14 -11 -24 -11 -14 0 -20 10 -24 41 -9 68 -59 82 -65 19 -2 -19 -10
-39 -18 -43 -8 -4 -14 -15 -14 -22 0 -17 -9 -19 -30 -5 -13 9 -12 13 7 29 31
26 29 41 -6 38 -16 -1 -29 -6 -28 -12 1 -5 -29 -10 -67 -10 l-69 -2 -15 39
c-8 21 -19 38 -23 38 -4 0 -20 -16 -36 -36 -26 -35 -28 -35 -37 -15 -11 26
-21 26 -49 0 -12 -11 -34 -29 -49 -40 -26 -19 -27 -19 -33 1 -5 16 -13 19 -48
16 -26 -2 -48 2 -59 11 -19 17 -58 2 -58 -22 0 -8 -6 -15 -14 -15 -7 0 -19 -7
-26 -15 -16 -19 -35 -19 -55 1 -15 15 -17 15 -35 -1 -18 -16 -19 -16 -34 19
-18 42 -36 52 -66 36 -16 -9 -25 -8 -36 1 -12 10 -17 10 -23 1 -4 -7 -15 -10
-23 -7 -11 4 -19 -1 -23 -16 -8 -23 -8 -23 -36 9 -16 18 -33 32 -38 32 -5 0
-19 -14 -31 -31 l-22 -30 -23 21 c-15 14 -30 20 -43 16 -11 -4 -29 1 -45 14
-14 11 -32 20 -40 20 -14 0 -49 44 -53 66 -1 6 -14 33 -28 60 -14 27 -26 56
-26 66 0 9 -5 20 -11 24 -13 7 -31 -15 -22 -29 3 -5 6 -44 8 -87 2 -65 0 -77
-13 -73 -7 3 -18 0 -22 -7 -12 -20 -29 -3 -56 56 -13 30 -31 54 -39 54 -8 0
-18 8 -24 17 -7 14 -12 15 -24 5 -19 -16 -70 9 -85 43 -7 14 -20 25 -31 25
-11 0 -25 8 -30 18 -10 16 -12 16 -24 0 -13 -16 -15 -16 -27 7 -8 14 -18 24
-24 22 -6 -3 -21 5 -33 16 -19 16 -25 18 -38 7 -11 -9 -19 -9 -28 -2 -7 6 -22
9 -33 6 -12 -3 -26 1 -33 10 -7 8 -18 13 -24 10 -7 -2 -20 9 -30 25 -10 16
-26 33 -37 36 -11 4 -20 15 -20 26 0 16 -5 19 -22 14 -13 -4 -31 -9 -40 -11
-13 -4 -21 3 -28 20 -5 14 -15 26 -21 26 -6 0 -27 16 -46 36 -24 26 -37 34
-45 26 -11 -11 -52 9 -74 37 -6 8 -18 11 -27 8 -19 -7 -47 27 -47 57 0 18 -1
19 -20 1 -13 -12 -20 -14 -20 -5 0 9 -3 10 -14 1 -15 -12 -26 3 -26 37 0 9 -9
28 -19 42 l-19 25 -7 -28 c-8 -29 -25 -37 -25 -12 0 28 -18 15 -30 -20 -9 -26
-17 -35 -34 -35 -18 0 -25 9 -34 39 -7 21 -19 44 -27 51 -12 10 -15 7 -21 -15
l-6 -26 -20 21 c-16 17 -23 19 -34 9 -11 -9 -18 -9 -25 -2 -8 8 -21 5 -45 -9
-19 -11 -36 -19 -37 -17 -1 2 -7 13 -13 24 -7 12 -20 19 -31 17 -12 -2 -23 4
-26 12 -4 9 -14 12 -25 9 -11 -2 -23 0 -26 6 -12 18 -23 12 -30 -14 -10 -40
-76 -58 -76 -21 0 8 -7 20 -16 27 -14 11 -19 9 -34 -11 -18 -24 -19 -24 -39
-6 -20 18 -21 18 -32 -8 -16 -35 -38 -33 -52 4 -8 21 -16 29 -26 25 -9 -4 -22
4 -32 17 -17 22 -18 22 -24 3 -20 -61 -24 -65 -62 -65 -40 1 -72 21 -92 58 -9
17 -18 21 -35 16 -16 -4 -25 0 -30 12 -6 16 -8 16 -26 -1 -17 -15 -23 -16 -49
-4 -17 8 -31 17 -31 21 0 19 -20 6 -26 -17 -5 -20 -12 -24 -37 -22 -17 1 -42
12 -54 23 -13 12 -34 22 -46 22 -21 1 -114 8 -129 11 -5 0 -8 7 -8 14 0 8 -9
22 -20 32 -19 17 -21 17 -39 1 -19 -17 -21 -17 -42 3 -15 14 -26 18 -33 11
-17 -17 -26 -11 -26 17 0 14 -7 34 -16 44 -13 15 -20 16 -35 6 -27 -17 -48 -1
-68 52 -10 23 -23 46 -30 50 -7 5 -10 18 -6 32 3 13 2 29 -2 35 -12 17 -69 44
-93 44 -12 0 -30 10 -40 22 l-18 23 -22 -20 -22 -20 -32 38 c-33 40 -50 46
-60 22 -8 -22 -24 -18 -28 7 -5 35 -25 32 -39 -6 -15 -42 -25 -44 -73 -15
l-36 21 -18 -22 -17 -21 -34 35 c-19 20 -41 36 -48 36 -8 0 -16 7 -19 15 -8
20 -24 19 -54 -5 -33 -26 -37 -25 -44 6 -12 47 -36 74 -67 74 -23 0 -29 5 -30
23 -1 17 -2 18 -6 4 -2 -9 -18 -24 -34 -32 -32 -17 -41 -9 -38 30 4 35 -1 55
-11 55 -5 0 -10 -18 -10 -41 0 -37 -2 -40 -22 -34 -13 4 -27 11 -33 16 -5 5
-11 61 -12 123 -2 100 0 115 16 130 18 16 19 16 25 -9 4 -14 11 -25 17 -25 7
0 9 20 4 63 -9 79 -18 98 -34 69 -18 -34 -29 -26 -30 21 -1 23 -3 71 -4 107
-1 50 1 65 12 65 8 0 16 6 19 13 2 7 -5 12 -17 12 -24 0 -29 28 -6 36 8 4 15
18 15 33 0 15 5 32 12 39 9 9 9 24 -2 64 -8 29 -13 73 -12 98 2 25 -3 63 -11
85 -8 22 -12 57 -9 77 2 20 -3 59 -13 87 -9 28 -14 55 -10 61 9 15 -4 50 -19
50 -8 0 -19 -7 -27 -16z"/>
<path d="M12091 5581 c0 -8 -9 -24 -20 -35 -22 -25 -38 -82 -20 -70 9 5 10 1
7 -14 -7 -27 7 -39 17 -14 6 15 8 14 17 -8 l11 -25 6 24 c9 35 29 37 42 4 l11
-28 14 28 c18 34 35 34 70 2 15 -14 29 -25 31 -25 7 0 -62 115 -75 126 -8 6
-25 9 -37 6 -13 -2 -26 1 -29 7 -4 5 -13 8 -20 5 -8 -3 -16 2 -19 13 -3 11 -5
12 -6 4z"/>
</g>
</svg>
